<svg width="248" height="133" viewBox="0 0 248 133" fill="none" xmlns="http://www.w3.org/2000/svg">
<rect x="0.498054" y="0.498054" width="246.039" height="131.833" rx="14.1591" fill="#121212"/>
<rect x="0.498054" y="0.498054" width="246.039" height="131.833" rx="14.1591" stroke="#303030" stroke-width="0.996109"/>
<path d="M30.1401 36.2137V34.8778H39.4673V36.2137H35.5567V47.3141H34.0507V36.2137H30.1401ZM43.0729 47.5328C42.4818 47.5328 41.9454 47.4214 41.4637 47.1988C40.9819 46.9721 40.5993 46.6462 40.316 46.2211C40.0326 45.792 39.8909 45.2738 39.8909 44.6666C39.8909 44.1322 39.9961 43.699 40.2067 43.3671C40.4172 43.031 40.6985 42.7679 41.0507 42.5776C41.4029 42.3874 41.7916 42.2457 42.2166 42.1526C42.6458 42.0554 43.0769 41.9785 43.5101 41.9218C44.0768 41.8489 44.5363 41.7943 44.8885 41.7579C45.2448 41.7174 45.5039 41.6506 45.6658 41.5575C45.8318 41.4644 45.9148 41.3024 45.9148 41.0717V41.0231C45.9148 40.4239 45.7508 39.9584 45.4229 39.6264C45.099 39.2945 44.6072 39.1285 43.9473 39.1285C43.2631 39.1285 42.7267 39.2783 42.3381 39.5779C41.9495 39.8774 41.6762 40.1972 41.5183 40.5373L40.1581 40.0515C40.401 39.4847 40.7248 39.0435 41.1297 38.7277C41.5386 38.4079 41.9839 38.1852 42.4656 38.0597C42.9514 37.9302 43.4291 37.8654 43.8987 37.8654C44.1983 37.8654 44.5424 37.9019 44.931 37.9747C45.3237 38.0435 45.7022 38.1873 46.0666 38.4059C46.435 38.6245 46.7406 38.9544 46.9835 39.3957C47.2264 39.8369 47.3479 40.428 47.3479 41.1688V47.3141H45.9148V46.0511H45.8419C45.7447 46.2535 45.5828 46.4701 45.3561 46.7008C45.1294 46.9316 44.8278 47.1279 44.4513 47.2899C44.0748 47.4518 43.6153 47.5328 43.0729 47.5328ZM43.2915 46.2454C43.8582 46.2454 44.3359 46.1341 44.7246 45.9114C45.1172 45.6888 45.4128 45.4013 45.6111 45.0491C45.8136 44.6969 45.9148 44.3265 45.9148 43.9379V42.6262C45.854 42.6991 45.7204 42.7659 45.514 42.8266C45.3116 42.8833 45.0768 42.9339 44.8096 42.9784C44.5464 43.0189 44.2894 43.0553 44.0384 43.0877C43.7914 43.1161 43.591 43.1404 43.4372 43.1606C43.0648 43.2092 42.7166 43.2881 42.3927 43.3974C42.0729 43.5027 41.8138 43.6626 41.6155 43.8771C41.4211 44.0877 41.324 44.3751 41.324 44.7394C41.324 45.2374 41.5082 45.6139 41.8766 45.8689C42.249 46.1199 42.7207 46.2454 43.2915 46.2454ZM49.9636 47.3141V37.9869H51.3481V39.3957H51.4452C51.6153 38.9342 51.9229 38.5597 52.3683 38.2723C52.8136 37.9848 53.3156 37.8411 53.8742 37.8411C53.9795 37.8411 54.111 37.8432 54.2689 37.8472C54.4268 37.8513 54.5462 37.8573 54.6272 37.8654V39.3228C54.5786 39.3107 54.4673 39.2924 54.2932 39.2682C54.1232 39.2398 53.943 39.2256 53.7528 39.2256C53.2994 39.2256 52.8945 39.3208 52.5383 39.5111C52.1861 39.6973 51.9067 39.9564 51.7003 40.2883C51.4979 40.6162 51.3967 40.9907 51.3967 41.4117V47.3141H49.9636ZM59.9527 47.5085C59.054 47.5085 58.2788 47.3101 57.627 46.9134C56.9793 46.5126 56.4793 45.9539 56.1271 45.2374C55.7789 44.5168 55.6049 43.6788 55.6049 42.7234C55.6049 41.768 55.7789 40.9259 56.1271 40.1972C56.4793 39.4645 56.9691 38.8937 57.5966 38.4848C58.2282 38.0719 58.965 37.8654 59.807 37.8654C60.2928 37.8654 60.7725 37.9464 61.2462 38.1083C61.7198 38.2703 62.151 38.5334 62.5396 38.8977C62.9282 39.258 63.2379 39.7357 63.4687 40.3308C63.6994 40.9259 63.8148 41.6587 63.8148 42.5291V43.1363H56.625V41.8975H62.3574C62.3574 41.3712 62.2522 40.9016 62.0417 40.4887C61.8352 40.0758 61.5397 39.7499 61.1551 39.5111C60.7745 39.2722 60.3252 39.1528 59.807 39.1528C59.2362 39.1528 58.7423 39.2945 58.3253 39.5779C57.9124 39.8572 57.5946 40.2215 57.3719 40.6709C57.1493 41.1203 57.038 41.602 57.038 42.1161V42.942C57.038 43.6464 57.1594 44.2435 57.4023 44.7334C57.6493 45.2192 57.9913 45.5896 58.4286 45.8446C58.8658 46.0956 59.3738 46.2211 59.9527 46.2211C60.3292 46.2211 60.6693 46.1685 60.9729 46.0632C61.2806 45.9539 61.5457 45.792 61.7684 45.5774C61.9911 45.3588 62.1631 45.0876 62.2846 44.7637L63.6691 45.1524C63.5233 45.622 63.2784 46.0349 62.9343 46.3911C62.5902 46.7433 62.1651 47.0186 61.6591 47.217C61.1531 47.4113 60.5843 47.5085 59.9527 47.5085ZM70.1484 37.9869V39.2014H65.1204V37.9869H70.1484ZM66.6264 47.3141V36.6995C66.6264 36.1651 66.7519 35.7198 67.0028 35.3636C67.2538 35.0073 67.5797 34.7401 67.9805 34.562C68.3813 34.3839 68.8043 34.2948 69.2497 34.2948C69.6019 34.2948 69.8893 34.3232 70.1119 34.3798C70.3346 34.4365 70.5006 34.4891 70.6099 34.5377L70.197 35.7765C70.1241 35.7522 70.0229 35.7218 69.8933 35.6854C69.7678 35.649 69.6019 35.6308 69.3954 35.6308C68.9217 35.6308 68.5797 35.7502 68.3691 35.989C68.1627 36.2279 68.0595 36.5781 68.0595 37.0396V47.3141H66.6264ZM74.6344 47.5328C74.0433 47.5328 73.5069 47.4214 73.0252 47.1988C72.5435 46.9721 72.1609 46.6462 71.8775 46.2211C71.5941 45.792 71.4524 45.2738 71.4524 44.6666C71.4524 44.1322 71.5577 43.699 71.7682 43.3671C71.9787 43.031 72.2601 42.7679 72.6123 42.5776C72.9645 42.3874 73.3531 42.2457 73.7782 42.1526C74.2073 42.0554 74.6384 41.9785 75.0716 41.9218C75.6384 41.8489 76.0979 41.7943 76.4501 41.7579C76.8063 41.7174 77.0654 41.6506 77.2273 41.5575C77.3933 41.4644 77.4763 41.3024 77.4763 41.0717V41.0231C77.4763 40.4239 77.3123 39.9584 76.9844 39.6264C76.6606 39.2945 76.1687 39.1285 75.5088 39.1285C74.8247 39.1285 74.2883 39.2783 73.8996 39.5779C73.511 39.8774 73.2377 40.1972 73.0799 40.5373L71.7196 40.0515C71.9625 39.4847 72.2864 39.0435 72.6912 38.7277C73.1001 38.4079 73.5454 38.1852 74.0272 38.0597C74.5129 37.9302 74.9906 37.8654 75.4603 37.8654C75.7598 37.8654 76.1039 37.9019 76.4926 37.9747C76.8853 38.0435 77.2638 38.1873 77.6281 38.4059C77.9965 38.6245 78.3022 38.9544 78.5451 39.3957C78.788 39.8369 78.9094 40.428 78.9094 41.1688V47.3141H77.4763V46.0511H77.4034C77.3063 46.2535 77.1443 46.4701 76.9176 46.7008C76.6909 46.9316 76.3893 47.1279 76.0128 47.2899C75.6364 47.4518 75.1769 47.5328 74.6344 47.5328ZM74.853 46.2454C75.4198 46.2454 75.8975 46.1341 76.2861 45.9114C76.6788 45.6888 76.9743 45.4013 77.1727 45.0491C77.3751 44.6969 77.4763 44.3265 77.4763 43.9379V42.6262C77.4156 42.6991 77.282 42.7659 77.0755 42.8266C76.8731 42.8833 76.6383 42.9339 76.3711 42.9784C76.108 43.0189 75.8509 43.0553 75.5999 43.0877C75.353 43.1161 75.1526 43.1404 74.9987 43.1606C74.6263 43.2092 74.2781 43.2881 73.9543 43.3974C73.6345 43.5027 73.3754 43.6626 73.177 43.8771C72.9827 44.0877 72.8855 44.3751 72.8855 44.7394C72.8855 45.2374 73.0697 45.6139 73.4381 45.8689C73.8106 46.1199 74.2822 46.2454 74.853 46.2454ZM88.1319 40.0758L86.8446 40.4401C86.7636 40.2256 86.6442 40.0171 86.4863 39.8147C86.3325 39.6082 86.122 39.4382 85.8548 39.3046C85.5876 39.171 85.2455 39.1042 84.8285 39.1042C84.2577 39.1042 83.782 39.2358 83.4015 39.4989C83.025 39.758 82.8368 40.0879 82.8368 40.4887C82.8368 40.845 82.9663 41.1263 83.2254 41.3328C83.4845 41.5393 83.8893 41.7113 84.4399 41.8489L85.8244 42.189C86.6583 42.3914 87.2798 42.7011 87.6886 43.1181C88.0975 43.531 88.302 44.0634 88.302 44.7151C88.302 45.2495 88.1481 45.7272 87.8405 46.1482C87.5368 46.5693 87.1118 46.9012 86.5652 47.1441C86.0187 47.387 85.3831 47.5085 84.6585 47.5085C83.7071 47.5085 82.9197 47.302 82.2963 46.8891C81.6729 46.4762 81.2782 45.873 81.1122 45.0795L82.4724 44.7394C82.602 45.2414 82.8469 45.6179 83.2072 45.8689C83.5715 46.1199 84.0472 46.2454 84.6342 46.2454C85.3022 46.2454 85.8325 46.1037 86.2252 45.8203C86.6219 45.5329 86.8203 45.1888 86.8203 44.788C86.8203 44.4641 86.7069 44.1929 86.4802 43.9743C86.2535 43.7516 85.9054 43.5857 85.4358 43.4764L83.8812 43.112C83.027 42.9096 82.3995 42.5959 81.9988 42.1708C81.602 41.7417 81.4037 41.2053 81.4037 40.5616C81.4037 40.0353 81.5514 39.5698 81.8469 39.1649C82.1465 38.7601 82.5534 38.4423 83.0675 38.2115C83.5857 37.9808 84.1727 37.8654 84.8285 37.8654C85.7515 37.8654 86.4762 38.0678 87.0025 38.4727C87.5328 38.8775 87.9093 39.4119 88.1319 40.0758ZM99.0578 47.5085C98.1833 47.5085 97.4304 47.302 96.7988 46.8891C96.1673 46.4762 95.6815 45.9074 95.3414 45.1827C95.0014 44.4581 94.8314 43.6302 94.8314 42.6991C94.8314 41.7518 95.0054 40.9158 95.3536 40.1912C95.7058 39.4625 96.1956 38.8937 96.8231 38.4848C97.4547 38.0719 98.1914 37.8654 99.0335 37.8654C99.6893 37.8654 100.28 37.9869 100.807 38.2298C101.333 38.4727 101.764 38.8127 102.1 39.2499C102.436 39.6872 102.645 40.1972 102.726 40.7802H101.292C101.183 40.3551 100.94 39.9786 100.564 39.6507C100.191 39.3188 99.6893 39.1528 99.0578 39.1528C98.4991 39.1528 98.0093 39.2985 97.5882 39.59C97.1713 39.8774 96.8454 40.2843 96.6106 40.8106C96.3798 41.3328 96.2645 41.9461 96.2645 42.6505C96.2645 43.3711 96.3778 43.9986 96.6045 44.533C96.8353 45.0673 97.1591 45.4823 97.5761 45.7778C97.9971 46.0733 98.491 46.2211 99.0578 46.2211C99.4302 46.2211 99.7683 46.1563 100.072 46.0268C100.376 45.8972 100.633 45.711 100.843 45.4681C101.054 45.2252 101.203 44.9337 101.292 44.5937H102.726C102.645 45.1443 102.444 45.6402 102.124 46.0814C101.809 46.5187 101.39 46.8668 100.867 47.1259C100.349 47.3809 99.746 47.5085 99.0578 47.5085ZM108.61 47.5085C107.768 47.5085 107.029 47.3081 106.393 46.9073C105.762 46.5065 105.268 45.9458 104.912 45.2252C104.559 44.5046 104.383 43.6626 104.383 42.6991C104.383 41.7275 104.559 40.8794 104.912 40.1547C105.268 39.4301 105.762 38.8674 106.393 38.4666C107.029 38.0658 107.768 37.8654 108.61 37.8654C109.452 37.8654 110.189 38.0658 110.82 38.4666C111.456 38.8674 111.95 39.4301 112.302 40.1547C112.658 40.8794 112.836 41.7275 112.836 42.6991C112.836 43.6626 112.658 44.5046 112.302 45.2252C111.95 45.9458 111.456 46.5065 110.82 46.9073C110.189 47.3081 109.452 47.5085 108.61 47.5085ZM108.61 46.2211C109.249 46.2211 109.776 46.0572 110.189 45.7292C110.601 45.4013 110.907 44.9702 111.106 44.4358C111.304 43.9014 111.403 43.3225 111.403 42.6991C111.403 42.0757 111.304 41.4947 111.106 40.9563C110.907 40.4179 110.601 39.9827 110.189 39.6507C109.776 39.3188 109.249 39.1528 108.61 39.1528C107.97 39.1528 107.444 39.3188 107.031 39.6507C106.618 39.9827 106.312 40.4179 106.114 40.9563C105.916 41.4947 105.816 42.0757 105.816 42.6991C105.816 43.3225 105.916 43.9014 106.114 44.4358C106.312 44.9702 106.618 45.4013 107.031 45.7292C107.444 46.0572 107.97 46.2211 108.61 46.2211ZM116.457 41.7032V47.3141H115.024V37.9869H116.408V39.4443H116.53C116.748 38.9706 117.08 38.5901 117.526 38.3026C117.971 38.0112 118.546 37.8654 119.25 37.8654C119.882 37.8654 120.434 37.995 120.908 38.2541C121.382 38.5091 121.75 38.8977 122.013 39.42C122.276 39.9381 122.408 40.594 122.408 41.3874V47.3141H120.975V41.4846C120.975 40.7519 120.784 40.181 120.404 39.7722C120.023 39.3592 119.501 39.1528 118.837 39.1528C118.38 39.1528 117.971 39.252 117.611 39.4503C117.254 39.6487 116.973 39.9381 116.767 40.3187C116.56 40.6992 116.457 41.1607 116.457 41.7032ZM128.816 47.5085C127.941 47.5085 127.188 47.302 126.557 46.8891C125.925 46.4762 125.44 45.9074 125.099 45.1827C124.759 44.4581 124.589 43.6302 124.589 42.6991C124.589 41.7518 124.763 40.9158 125.112 40.1912C125.464 39.4625 125.954 38.8937 126.581 38.4848C127.213 38.0719 127.949 37.8654 128.792 37.8654C129.447 37.8654 130.038 37.9869 130.565 38.2298C131.091 38.4727 131.522 38.8127 131.858 39.2499C132.194 39.6872 132.403 40.1972 132.484 40.7802H131.05C130.941 40.3551 130.698 39.9786 130.322 39.6507C129.949 39.3188 129.447 39.1528 128.816 39.1528C128.257 39.1528 127.767 39.2985 127.346 39.59C126.929 39.8774 126.603 40.2843 126.369 40.8106C126.138 41.3328 126.022 41.9461 126.022 42.6505C126.022 43.3711 126.136 43.9986 126.363 44.533C126.593 45.0673 126.917 45.4823 127.334 45.7778C127.755 46.0733 128.249 46.2211 128.816 46.2211C129.188 46.2211 129.526 46.1563 129.83 46.0268C130.134 45.8972 130.391 45.711 130.601 45.4681C130.812 45.2252 130.961 44.9337 131.05 44.5937H132.484C132.403 45.1443 132.202 45.6402 131.882 46.0814C131.567 46.5187 131.148 46.8668 130.625 47.1259C130.107 47.3809 129.504 47.5085 128.816 47.5085ZM136.012 34.8778V47.3141H134.579V34.8778H136.012ZM144.515 43.5007V37.9869H145.948V47.3141H144.515V45.7353H144.417C144.199 46.209 143.859 46.6118 143.397 46.9437C142.936 47.2716 142.353 47.4356 141.648 47.4356C141.065 47.4356 140.547 47.3081 140.094 47.053C139.64 46.7939 139.284 46.4053 139.025 45.8871C138.766 45.3649 138.636 44.707 138.636 43.9136V37.9869H140.07V43.8164C140.07 44.4965 140.26 45.039 140.64 45.4438C141.025 45.8487 141.515 46.0511 142.11 46.0511C142.466 46.0511 142.828 45.96 143.197 45.7778C143.569 45.5956 143.881 45.3163 144.132 44.9398C144.387 44.5633 144.515 44.0836 144.515 43.5007ZM148.573 47.3141V37.9869H150.006V47.3141H148.573ZM148.645 36.7238L150.127 33.9062H151.803L149.908 36.7238H148.645ZM156.152 47.5085C155.375 47.5085 154.689 47.3121 154.094 46.9194C153.499 46.5227 153.033 45.964 152.697 45.2434C152.361 44.5188 152.193 43.6626 152.193 42.6748C152.193 41.6951 152.361 40.845 152.697 40.1244C153.033 39.4038 153.501 38.8471 154.1 38.4544C154.699 38.0618 155.391 37.8654 156.177 37.8654C156.784 37.8654 157.264 37.9666 157.616 38.169C157.972 38.3674 158.243 38.5941 158.43 38.8492C158.62 39.1002 158.768 39.3066 158.873 39.4685H158.994V34.8778H160.427V47.3141H159.043V45.8811H158.873C158.768 46.0511 158.618 46.2656 158.424 46.5247C158.229 46.7798 157.952 47.0085 157.592 47.2109C157.231 47.4093 156.752 47.5085 156.152 47.5085ZM156.347 46.2211C156.922 46.2211 157.407 46.0713 157.804 45.7717C158.201 45.4681 158.502 45.0491 158.709 44.5147C158.915 43.9763 159.019 43.3549 159.019 42.6505C159.019 41.9542 158.917 41.3449 158.715 40.8227C158.513 40.2964 158.213 39.8875 157.816 39.5961C157.42 39.3005 156.93 39.1528 156.347 39.1528C155.74 39.1528 155.233 39.3086 154.829 39.6204C154.428 39.928 154.126 40.347 153.924 40.8774C153.725 41.4036 153.626 41.9947 153.626 42.6505C153.626 43.3144 153.728 43.9176 153.93 44.4601C154.136 44.9985 154.44 45.4276 154.841 45.7475C155.246 46.0632 155.748 46.2211 156.347 46.2211ZM165.996 47.5328C165.405 47.5328 164.868 47.4214 164.387 47.1988C163.905 46.9721 163.522 46.6462 163.239 46.2211C162.956 45.792 162.814 45.2738 162.814 44.6666C162.814 44.1322 162.919 43.699 163.13 43.3671C163.34 43.031 163.622 42.7679 163.974 42.5776C164.326 42.3874 164.715 42.2457 165.14 42.1526C165.569 42.0554 166 41.9785 166.433 41.9218C167 41.8489 167.459 41.7943 167.812 41.7579C168.168 41.7174 168.427 41.6506 168.589 41.5575C168.755 41.4644 168.838 41.3024 168.838 41.0717V41.0231C168.838 40.4239 168.674 39.9584 168.346 39.6264C168.022 39.2945 167.53 39.1285 166.87 39.1285C166.186 39.1285 165.65 39.2783 165.261 39.5779C164.872 39.8774 164.599 40.1972 164.441 40.5373L163.081 40.0515C163.324 39.4847 163.648 39.0435 164.053 38.7277C164.462 38.4079 164.907 38.1852 165.389 38.0597C165.874 37.9302 166.352 37.8654 166.822 37.8654C167.121 37.8654 167.465 37.9019 167.854 37.9747C168.247 38.0435 168.625 38.1873 168.99 38.4059C169.358 38.6245 169.664 38.9544 169.907 39.3957C170.149 39.8369 170.271 40.428 170.271 41.1688V47.3141H168.838V46.0511H168.765C168.668 46.2535 168.506 46.4701 168.279 46.7008C168.052 46.9316 167.751 47.1279 167.374 47.2899C166.998 47.4518 166.538 47.5328 165.996 47.5328ZM166.214 46.2454C166.781 46.2454 167.259 46.1341 167.648 45.9114C168.04 45.6888 168.336 45.4013 168.534 45.0491C168.737 44.6969 168.838 44.3265 168.838 43.9379V42.6262C168.777 42.6991 168.643 42.7659 168.437 42.8266C168.235 42.8833 168 42.9339 167.733 42.9784C167.469 43.0189 167.212 43.0553 166.961 43.0877C166.714 43.1161 166.514 43.1404 166.36 43.1606C165.988 43.2092 165.64 43.2881 165.316 43.3974C164.996 43.5027 164.737 43.6626 164.538 43.8771C164.344 44.0877 164.247 44.3751 164.247 44.7394C164.247 45.2374 164.431 45.6139 164.8 45.8689C165.172 46.1199 165.644 46.2454 166.214 46.2454ZM179.493 40.0758L178.206 40.4401C178.125 40.2256 178.006 40.0171 177.848 39.8147C177.694 39.6082 177.483 39.4382 177.216 39.3046C176.949 39.171 176.607 39.1042 176.19 39.1042C175.619 39.1042 175.144 39.2358 174.763 39.4989C174.386 39.758 174.198 40.0879 174.198 40.4887C174.198 40.845 174.328 41.1263 174.587 41.3328C174.846 41.5393 175.251 41.7113 175.801 41.8489L177.186 42.189C178.02 42.3914 178.641 42.7011 179.05 43.1181C179.459 43.531 179.663 44.0634 179.663 44.7151C179.663 45.2495 179.51 45.7272 179.202 46.1482C178.898 46.5693 178.473 46.9012 177.927 47.1441C177.38 47.387 176.745 47.5085 176.02 47.5085C175.069 47.5085 174.281 47.302 173.658 46.8891C173.034 46.4762 172.64 45.873 172.474 45.0795L173.834 44.7394C173.963 45.2414 174.208 45.6179 174.569 45.8689C174.933 46.1199 175.409 46.2454 175.996 46.2454C176.664 46.2454 177.194 46.1037 177.587 45.8203C177.983 45.5329 178.182 45.1888 178.182 44.788C178.182 44.4641 178.068 44.1929 177.842 43.9743C177.615 43.7516 177.267 43.5857 176.797 43.4764L175.243 43.112C174.389 42.9096 173.761 42.5959 173.36 42.1708C172.964 41.7417 172.765 41.2053 172.765 40.5616C172.765 40.0353 172.913 39.5698 173.208 39.1649C173.508 38.7601 173.915 38.4423 174.429 38.2115C174.947 37.9808 175.534 37.8654 176.19 37.8654C177.113 37.8654 177.838 38.0678 178.364 38.4727C178.894 38.8775 179.271 39.4119 179.493 40.0758Z" fill="white"/>
<path d="M30.8757 87.7157H34.7794C34.828 88.3126 35.0292 88.8261 35.3832 89.2564C35.7371 89.6797 36.2021 90.0059 36.7781 90.2349C37.3541 90.457 37.9961 90.568 38.7039 90.568C39.4535 90.568 40.1232 90.4396 40.7131 90.1829C41.303 89.9191 41.7645 89.5444 42.0976 89.0586C42.4376 88.5659 42.6077 87.969 42.6077 87.2681C42.6077 86.6227 42.4446 86.0363 42.1184 85.5088C41.7992 84.9744 41.3099 84.5511 40.6506 84.2388C39.9913 83.9196 39.1481 83.76 38.121 83.76H36.0078V80.9805L40.9421 75.5674V75.4216H31.9271V72.1945H45.8139V74.9844L40.0885 81.1471V81.3136C41.1433 81.3969 42.0733 81.619 42.8783 81.9799C43.6903 82.3407 44.3704 82.8022 44.9187 83.3644C45.4669 83.9265 45.8798 84.558 46.1574 85.259C46.435 85.9599 46.5738 86.6955 46.5738 87.4659C46.5738 88.7151 46.2303 89.8151 45.5433 90.7658C44.8631 91.7166 43.9263 92.4626 42.7326 93.004C41.5459 93.5383 40.1926 93.8055 38.6727 93.8055C37.2153 93.8055 35.9072 93.5557 34.7482 93.056C33.5962 92.5563 32.6766 91.8519 31.9896 90.9428C31.3025 90.0267 30.9312 88.951 30.8757 87.7157ZM58.0404 93.92C56.3262 93.92 54.8549 93.4863 53.6266 92.6188C52.4051 91.7444 51.4648 90.4848 50.8055 88.84C50.1531 87.1883 49.8269 85.2 49.8269 82.8751C49.8339 80.5502 50.1635 78.5723 50.8159 76.9415C51.4752 75.3036 52.4155 74.0544 53.637 73.1939C54.8653 72.3333 56.3331 71.9031 58.0404 71.9031C59.7476 71.9031 61.2154 72.3333 62.4437 73.1939C63.6721 74.0544 64.6125 75.3036 65.2648 76.9415C65.9241 78.5793 66.2538 80.5572 66.2538 82.8751C66.2538 85.2069 65.9241 87.1987 65.2648 88.8504C64.6125 90.4952 63.6721 91.7513 62.4437 92.6188C61.2223 93.4863 59.7545 93.92 58.0404 93.92ZM58.0404 90.6617C59.3728 90.6617 60.4242 90.0059 61.1946 88.6942C61.9718 87.3757 62.3605 85.4359 62.3605 82.8751C62.3605 81.1818 62.1835 79.7591 61.8296 78.607C61.4756 77.455 60.9759 76.5875 60.3305 76.0046C59.6851 75.4147 58.9217 75.1197 58.0404 75.1197C56.7148 75.1197 55.6669 75.779 54.8966 77.0976C54.1262 78.4093 53.7376 80.3351 53.7307 82.8751C53.7237 84.5754 53.8937 86.005 54.2407 87.164C54.5947 88.323 55.0944 89.1974 55.7398 89.7873C56.3852 90.3702 57.152 90.6617 58.0404 90.6617Z" fill="white"/>
<path d="M161.653 86.6403V79.7697H162.819V86.6403H161.653ZM158.801 83.7879V82.622H165.672V83.7879H158.801ZM167.922 86.328V85.2661L172.19 77.8543H173.46L169.296 85.0996V85.1829H175.625V86.328H167.922ZM172.939 88.514V86.0157V85.5108V81.8517H174.168V88.514H172.939ZM183.009 86.5153V85.9532C183.009 85.5646 183.089 85.2089 183.249 84.8862C183.412 84.56 183.648 84.2998 183.957 84.1054C184.269 83.9077 184.647 83.8088 185.091 83.8088C185.543 83.8088 185.921 83.9077 186.226 84.1054C186.531 84.2998 186.762 84.56 186.918 84.8862C187.074 85.2089 187.153 85.5646 187.153 85.9532V86.5153C187.153 86.904 187.073 87.2614 186.913 87.5876C186.757 87.9103 186.525 88.1705 186.216 88.3683C185.91 88.5626 185.536 88.6598 185.091 88.6598C184.64 88.6598 184.26 88.5626 183.952 88.3683C183.643 88.1705 183.408 87.9103 183.249 87.5876C183.089 87.2614 183.009 86.904 183.009 86.5153ZM184.071 85.9532V86.5153C184.071 86.838 184.148 87.1278 184.3 87.3846C184.453 87.6379 184.717 87.7645 185.091 87.7645C185.456 87.7645 185.713 87.6379 185.862 87.3846C186.014 87.1278 186.091 86.838 186.091 86.5153V85.9532C186.091 85.6305 186.018 85.3425 185.872 85.0892C185.726 84.8324 185.466 84.704 185.091 84.704C184.727 84.704 184.465 84.8324 184.305 85.0892C184.149 85.3425 184.071 85.6305 184.071 85.9532ZM177.7 80.4151V79.853C177.7 79.4644 177.78 79.1087 177.94 78.786C178.103 78.4598 178.339 78.1996 178.648 78.0052C178.96 77.8074 179.338 77.7086 179.782 77.7086C180.233 77.7086 180.612 77.8074 180.917 78.0052C181.222 78.1996 181.453 78.4598 181.609 78.786C181.765 79.1087 181.844 79.4644 181.844 79.853V80.4151C181.844 80.8038 181.764 81.1612 181.604 81.4873C181.448 81.8101 181.215 82.0703 180.907 82.2681C180.601 82.4624 180.227 82.5596 179.782 82.5596C179.331 82.5596 178.951 82.4624 178.642 82.2681C178.334 82.0703 178.099 81.8101 177.94 81.4873C177.78 81.1612 177.7 80.8038 177.7 80.4151ZM178.762 79.853V80.4151C178.762 80.7378 178.839 81.0276 178.991 81.2844C179.144 81.5377 179.408 81.6643 179.782 81.6643C180.147 81.6643 180.403 81.5377 180.553 81.2844C180.705 81.0276 180.782 80.7378 180.782 80.4151V79.853C180.782 79.5303 180.709 79.2423 180.563 78.989C180.417 78.7322 180.157 78.6038 179.782 78.6038C179.418 78.6038 179.156 78.7322 178.996 78.989C178.84 79.2423 178.762 79.5303 178.762 79.853ZM178.096 88.514L185.425 77.8543H186.611L179.283 88.514H178.096Z" fill="#FF073A"/>
<path fill-rule="evenodd" clip-rule="evenodd" d="M208.504 86.436L215.277 88.3998L213.592 81.5523L211.489 83.5712L208.096 80.0375C207.981 79.9176 207.822 79.8498 207.656 79.8498C207.489 79.8498 207.33 79.9176 207.215 80.0375L204.724 82.6322L201.061 78.8161C200.827 78.5728 200.441 78.5649 200.197 78.7985C199.954 79.0321 199.946 79.4187 200.18 79.662L204.284 83.937C204.399 84.057 204.558 84.1248 204.724 84.1248C204.891 84.1248 205.05 84.057 205.165 83.937L207.656 81.3423L210.607 84.4171L208.504 86.436Z" fill="#FF073A"/>
</svg>
