<svg width="248" height="133" viewBox="0 0 248 133" fill="none" xmlns="http://www.w3.org/2000/svg">
<rect x="0.498054" y="0.498054" width="246.039" height="131.833" rx="14.1591" fill="#121212"/>
<rect x="0.498054" y="0.498054" width="246.039" height="131.833" rx="14.1591" stroke="#303030" stroke-width="0.996109"/>
<path d="M30.1403 36.2137V34.8778H39.4676V36.2137H35.5569V47.3141H34.051V36.2137H30.1403ZM43.0731 47.5328C42.482 47.5328 41.9456 47.4214 41.4639 47.1988C40.9822 46.9721 40.5996 46.6462 40.3162 46.2211C40.0328 45.792 39.8911 45.2738 39.8911 44.6666C39.8911 44.1322 39.9964 43.699 40.2069 43.3671C40.4174 43.031 40.6988 42.7679 41.051 42.5776C41.4032 42.3874 41.7918 42.2457 42.2169 42.1526C42.646 42.0554 43.0771 41.9785 43.5103 41.9218C44.0771 41.8489 44.5366 41.7943 44.8888 41.7579C45.245 41.7174 45.5041 41.6506 45.666 41.5575C45.832 41.4644 45.915 41.3024 45.915 41.0717V41.0231C45.915 40.4239 45.751 39.9584 45.4231 39.6264C45.0993 39.2945 44.6074 39.1285 43.9475 39.1285C43.2634 39.1285 42.727 39.2783 42.3383 39.5779C41.9497 39.8774 41.6764 40.1972 41.5186 40.5373L40.1583 40.0515C40.4012 39.4847 40.7251 39.0435 41.1299 38.7277C41.5388 38.4079 41.9841 38.1852 42.4659 38.0597C42.9517 37.9302 43.4293 37.8654 43.899 37.8654C44.1985 37.8654 44.5426 37.9019 44.9313 37.9747C45.324 38.0435 45.7025 38.1873 46.0668 38.4059C46.4352 38.6245 46.7409 38.9544 46.9838 39.3957C47.2267 39.8369 47.3481 40.428 47.3481 41.1688V47.3141H45.915V46.0511H45.8421C45.745 46.2535 45.583 46.4701 45.3563 46.7008C45.1296 46.9316 44.828 47.1279 44.4515 47.2899C44.0751 47.4518 43.6156 47.5328 43.0731 47.5328ZM43.2917 46.2454C43.8585 46.2454 44.3362 46.1341 44.7248 45.9114C45.1175 45.6888 45.413 45.4013 45.6114 45.0491C45.8138 44.6969 45.915 44.3265 45.915 43.9379V42.6262C45.8543 42.6991 45.7207 42.7659 45.5142 42.8266C45.3118 42.8833 45.077 42.9339 44.8098 42.9784C44.5467 43.0189 44.2896 43.0553 44.0386 43.0877C43.7917 43.1161 43.5913 43.1404 43.4374 43.1606C43.065 43.2092 42.7168 43.2881 42.393 43.3974C42.0732 43.5027 41.8141 43.6626 41.6157 43.8771C41.4214 44.0877 41.3242 44.3751 41.3242 44.7394C41.3242 45.2374 41.5084 45.6139 41.8768 45.8689C42.2493 46.1199 42.7209 46.2454 43.2917 46.2454ZM49.9638 47.3141V37.9869H51.3483V39.3957H51.4455C51.6155 38.9342 51.9232 38.5597 52.3685 38.2723C52.8138 37.9848 53.3158 37.8411 53.8745 37.8411C53.9797 37.8411 54.1113 37.8432 54.2692 37.8472C54.4271 37.8513 54.5465 37.8573 54.6274 37.8654V39.3228C54.5789 39.3107 54.4675 39.2924 54.2935 39.2682C54.1234 39.2398 53.9433 39.2256 53.753 39.2256C53.2996 39.2256 52.8948 39.3208 52.5385 39.5111C52.1863 39.6973 51.907 39.9564 51.7005 40.2883C51.4981 40.6162 51.3969 40.9907 51.3969 41.4117V47.3141H49.9638ZM59.953 47.5085C59.0543 47.5085 58.279 47.3101 57.6272 46.9134C56.9795 46.5126 56.4795 45.9539 56.1273 45.2374C55.7792 44.5168 55.6051 43.6788 55.6051 42.7234C55.6051 41.768 55.7792 40.9259 56.1273 40.1972C56.4795 39.4645 56.9694 38.8937 57.5969 38.4848C58.2284 38.0719 58.9652 37.8654 59.8072 37.8654C60.293 37.8654 60.7728 37.9464 61.2464 38.1083C61.7201 38.2703 62.1512 38.5334 62.5398 38.8977C62.9285 39.258 63.2382 39.7357 63.4689 40.3308C63.6997 40.9259 63.8151 41.6587 63.8151 42.5291V43.1363H56.6253V41.8975H62.3577C62.3577 41.3712 62.2524 40.9016 62.0419 40.4887C61.8354 40.0758 61.5399 39.7499 61.1553 39.5111C60.7748 39.2722 60.3254 39.1528 59.8072 39.1528C59.2364 39.1528 58.7425 39.2945 58.3256 39.5779C57.9126 39.8572 57.5948 40.2215 57.3722 40.6709C57.1495 41.1203 57.0382 41.602 57.0382 42.1161V42.942C57.0382 43.6464 57.1597 44.2435 57.4026 44.7334C57.6495 45.2192 57.9916 45.5896 58.4288 45.8446C58.866 46.0956 59.3741 46.2211 59.953 46.2211C60.3295 46.2211 60.6695 46.1685 60.9732 46.0632C61.2808 45.9539 61.546 45.792 61.7686 45.5774C61.9913 45.3588 62.1634 45.0876 62.2848 44.7637L63.6693 45.1524C63.5236 45.622 63.2787 46.0349 62.9346 46.3911C62.5904 46.7433 62.1654 47.0186 61.6593 47.217C61.1533 47.4113 60.5845 47.5085 59.953 47.5085ZM70.1486 37.9869V39.2014H65.1206V37.9869H70.1486ZM66.6266 47.3141V36.6995C66.6266 36.1651 66.7521 35.7198 67.0031 35.3636C67.2541 35.0073 67.58 34.7401 67.9808 34.562C68.3815 34.3839 68.8046 34.2948 69.2499 34.2948C69.6021 34.2948 69.8895 34.3232 70.1122 34.3798C70.3348 34.4365 70.5008 34.4891 70.6101 34.5377L70.1972 35.7765C70.1243 35.7522 70.0231 35.7218 69.8936 35.6854C69.7681 35.649 69.6021 35.6308 69.3956 35.6308C68.922 35.6308 68.5799 35.7502 68.3694 35.989C68.1629 36.2279 68.0597 36.5781 68.0597 37.0396V47.3141H66.6266ZM74.6346 47.5328C74.0436 47.5328 73.5072 47.4214 73.0254 47.1988C72.5437 46.9721 72.1611 46.6462 71.8778 46.2211C71.5944 45.792 71.4527 45.2738 71.4527 44.6666C71.4527 44.1322 71.5579 43.699 71.7684 43.3671C71.979 43.031 72.2603 42.7679 72.6125 42.5776C72.9647 42.3874 73.3534 42.2457 73.7784 42.1526C74.2075 42.0554 74.6387 41.9785 75.0719 41.9218C75.6386 41.8489 76.0981 41.7943 76.4503 41.7579C76.8066 41.7174 77.0656 41.6506 77.2276 41.5575C77.3936 41.4644 77.4765 41.3024 77.4765 41.0717V41.0231C77.4765 40.4239 77.3126 39.9584 76.9847 39.6264C76.6608 39.2945 76.1689 39.1285 75.5091 39.1285C74.8249 39.1285 74.2885 39.2783 73.8999 39.5779C73.5112 39.8774 73.238 40.1972 73.0801 40.5373L71.7199 40.0515C71.9628 39.4847 72.2866 39.0435 72.6915 38.7277C73.1003 38.4079 73.5456 38.1852 74.0274 38.0597C74.5132 37.9302 74.9909 37.8654 75.4605 37.8654C75.7601 37.8654 76.1042 37.9019 76.4928 37.9747C76.8855 38.0435 77.264 38.1873 77.6284 38.4059C77.9968 38.6245 78.3024 38.9544 78.5453 39.3957C78.7882 39.8369 78.9096 40.428 78.9096 41.1688V47.3141H77.4765V46.0511H77.4037C77.3065 46.2535 77.1446 46.4701 76.9179 46.7008C76.6912 46.9316 76.3896 47.1279 76.0131 47.2899C75.6366 47.4518 75.1771 47.5328 74.6346 47.5328ZM74.8532 46.2454C75.42 46.2454 75.8977 46.1341 76.2863 45.9114C76.679 45.6888 76.9746 45.4013 77.1729 45.0491C77.3753 44.6969 77.4765 44.3265 77.4765 43.9379V42.6262C77.4158 42.6991 77.2822 42.7659 77.0758 42.8266C76.8734 42.8833 76.6385 42.9339 76.3714 42.9784C76.1082 43.0189 75.8512 43.0553 75.6002 43.0877C75.3532 43.1161 75.1528 43.1404 74.999 43.1606C74.6265 43.2092 74.2784 43.2881 73.9545 43.3974C73.6347 43.5027 73.3756 43.6626 73.1773 43.8771C72.9829 44.0877 72.8858 44.3751 72.8858 44.7394C72.8858 45.2374 73.07 45.6139 73.4384 45.8689C73.8108 46.1199 74.2824 46.2454 74.8532 46.2454ZM88.1322 40.0758L86.8448 40.4401C86.7638 40.2256 86.6444 40.0171 86.4865 39.8147C86.3327 39.6082 86.1222 39.4382 85.855 39.3046C85.5878 39.171 85.2457 39.1042 84.8288 39.1042C84.258 39.1042 83.7823 39.2358 83.4017 39.4989C83.0252 39.758 82.837 40.0879 82.837 40.4887C82.837 40.845 82.9665 41.1263 83.2256 41.3328C83.4847 41.5393 83.8896 41.7113 84.4401 41.8489L85.8246 42.189C86.6586 42.3914 87.28 42.7011 87.6889 43.1181C88.0978 43.531 88.3022 44.0634 88.3022 44.7151C88.3022 45.2495 88.1484 45.7272 87.8407 46.1482C87.5371 46.5693 87.112 46.9012 86.5655 47.1441C86.019 47.387 85.3834 47.5085 84.6587 47.5085C83.7074 47.5085 82.92 47.302 82.2966 46.8891C81.6731 46.4762 81.2784 45.873 81.1124 45.0795L82.4727 44.7394C82.6022 45.2414 82.8471 45.6179 83.2074 45.8689C83.5718 46.1199 84.0474 46.2454 84.6344 46.2454C85.3024 46.2454 85.8327 46.1037 86.2254 45.8203C86.6222 45.5329 86.8205 45.1888 86.8205 44.788C86.8205 44.4641 86.7072 44.1929 86.4805 43.9743C86.2538 43.7516 85.9056 43.5857 85.436 43.4764L83.8815 43.112C83.0273 42.9096 82.3998 42.5959 81.999 42.1708C81.6023 41.7417 81.4039 41.2053 81.4039 40.5616C81.4039 40.0353 81.5517 39.5698 81.8472 39.1649C82.1468 38.7601 82.5536 38.4423 83.0678 38.2115C83.5859 37.9808 84.1729 37.8654 84.8288 37.8654C85.7518 37.8654 86.4764 38.0678 87.0027 38.4727C87.533 38.8775 87.9095 39.4119 88.1322 40.0758ZM99.058 47.5085C98.1836 47.5085 97.4306 47.302 96.7991 46.8891C96.1675 46.4762 95.6817 45.9074 95.3417 45.1827C95.0016 44.4581 94.8316 43.6302 94.8316 42.6991C94.8316 41.7518 95.0057 40.9158 95.3538 40.1912C95.706 39.4625 96.1959 38.8937 96.8234 38.4848C97.4549 38.0719 98.1917 37.8654 99.0337 37.8654C99.6896 37.8654 100.281 37.9869 100.807 38.2298C101.333 38.4727 101.764 38.8127 102.1 39.2499C102.436 39.6872 102.645 40.1972 102.726 40.7802H101.293C101.183 40.3551 100.94 39.9786 100.564 39.6507C100.192 39.3188 99.6896 39.1528 99.058 39.1528C98.4994 39.1528 98.0095 39.2985 97.5885 39.59C97.1715 39.8774 96.8456 40.2843 96.6108 40.8106C96.3801 41.3328 96.2647 41.9461 96.2647 42.6505C96.2647 43.3711 96.3781 43.9986 96.6048 44.533C96.8355 45.0673 97.1594 45.4823 97.5763 45.7778C97.9974 46.0733 98.4913 46.2211 99.058 46.2211C99.4305 46.2211 99.7685 46.1563 100.072 46.0268C100.376 45.8972 100.633 45.711 100.843 45.4681C101.054 45.2252 101.204 44.9337 101.293 44.5937H102.726C102.645 45.1443 102.444 45.6402 102.125 46.0814C101.809 46.5187 101.39 46.8668 100.868 47.1259C100.349 47.3809 99.7462 47.5085 99.058 47.5085ZM104.821 47.3141V37.9869H106.205V39.3957H106.302C106.472 38.9342 106.78 38.5597 107.225 38.2723C107.671 37.9848 108.173 37.8411 108.731 37.8411C108.837 37.8411 108.968 37.8432 109.126 37.8472C109.284 37.8513 109.403 37.8573 109.484 37.8654V39.3228C109.436 39.3107 109.325 39.2924 109.15 39.2682C108.98 39.2398 108.8 39.2256 108.61 39.2256C108.157 39.2256 107.752 39.3208 107.395 39.5111C107.043 39.6973 106.764 39.9564 106.557 40.2883C106.355 40.6162 106.254 40.9907 106.254 41.4117V47.3141H104.821ZM111.183 47.3141V37.9869H112.616V47.3141H111.183ZM111.912 36.4323C111.633 36.4323 111.392 36.3372 111.189 36.1469C110.991 35.9566 110.892 35.7279 110.892 35.4607C110.892 35.1935 110.991 34.9648 111.189 34.7745C111.392 34.5843 111.633 34.4891 111.912 34.4891C112.191 34.4891 112.43 34.5843 112.628 34.7745C112.831 34.9648 112.932 35.1935 112.932 35.4607C112.932 35.7279 112.831 35.9566 112.628 36.1469C112.43 36.3372 112.191 36.4323 111.912 36.4323ZM117.986 47.5328C117.395 47.5328 116.858 47.4214 116.377 47.1988C115.895 46.9721 115.512 46.6462 115.229 46.2211C114.946 45.792 114.804 45.2738 114.804 44.6666C114.804 44.1322 114.909 43.699 115.12 43.3671C115.33 43.031 115.612 42.7679 115.964 42.5776C116.316 42.3874 116.705 42.2457 117.13 42.1526C117.559 42.0554 117.99 41.9785 118.423 41.9218C118.99 41.8489 119.449 41.7943 119.801 41.7579C120.158 41.7174 120.417 41.6506 120.579 41.5575C120.745 41.4644 120.828 41.3024 120.828 41.0717V41.0231C120.828 40.4239 120.664 39.9584 120.336 39.6264C120.012 39.2945 119.52 39.1285 118.86 39.1285C118.176 39.1285 117.64 39.2783 117.251 39.5779C116.862 39.8774 116.589 40.1972 116.431 40.5373L115.071 40.0515C115.314 39.4847 115.638 39.0435 116.043 38.7277C116.452 38.4079 116.897 38.1852 117.379 38.0597C117.864 37.9302 118.342 37.8654 118.812 37.8654C119.111 37.8654 119.455 37.9019 119.844 37.9747C120.237 38.0435 120.615 38.1873 120.98 38.4059C121.348 38.6245 121.654 38.9544 121.896 39.3957C122.139 39.8369 122.261 40.428 122.261 41.1688V47.3141H120.828V46.0511H120.755C120.658 46.2535 120.496 46.4701 120.269 46.7008C120.042 46.9316 119.741 47.1279 119.364 47.2899C118.988 47.4518 118.528 47.5328 117.986 47.5328ZM118.204 46.2454C118.771 46.2454 119.249 46.1341 119.638 45.9114C120.03 45.6888 120.326 45.4013 120.524 45.0491C120.727 44.6969 120.828 44.3265 120.828 43.9379V42.6262C120.767 42.6991 120.633 42.7659 120.427 42.8266C120.225 42.8833 119.99 42.9339 119.723 42.9784C119.459 43.0189 119.202 43.0553 118.951 43.0877C118.704 43.1161 118.504 43.1404 118.35 43.1606C117.978 43.2092 117.63 43.2881 117.306 43.3974C116.986 43.5027 116.727 43.6626 116.528 43.8771C116.334 44.0877 116.237 44.3751 116.237 44.7394C116.237 45.2374 116.421 45.6139 116.79 45.8689C117.162 46.1199 117.634 46.2454 118.204 46.2454ZM128.399 47.5085C127.621 47.5085 126.935 47.3121 126.34 46.9194C125.745 46.5227 125.279 45.964 124.943 45.2434C124.607 44.5188 124.439 43.6626 124.439 42.6748C124.439 41.6951 124.607 40.845 124.943 40.1244C125.279 39.4038 125.747 38.8471 126.346 38.4544C126.945 38.0618 127.637 37.8654 128.423 37.8654C129.03 37.8654 129.51 37.9666 129.862 38.169C130.218 38.3674 130.49 38.5941 130.676 38.8492C130.866 39.1002 131.014 39.3066 131.119 39.4685H131.24V34.8778H132.674V47.3141H131.289V45.8811H131.119C131.014 46.0511 130.864 46.2656 130.67 46.5247C130.475 46.7798 130.198 47.0085 129.838 47.2109C129.477 47.4093 128.998 47.5085 128.399 47.5085ZM128.593 46.2211C129.168 46.2211 129.654 46.0713 130.05 45.7717C130.447 45.4681 130.749 45.0491 130.955 44.5147C131.162 43.9763 131.265 43.3549 131.265 42.6505C131.265 41.9542 131.164 41.3449 130.961 40.8227C130.759 40.2964 130.459 39.8875 130.062 39.5961C129.666 39.3005 129.176 39.1528 128.593 39.1528C127.986 39.1528 127.48 39.3086 127.075 39.6204C126.674 39.928 126.372 40.347 126.17 40.8774C125.972 41.4036 125.872 41.9947 125.872 42.6505C125.872 43.3144 125.974 43.9176 126.176 44.4601C126.383 44.9985 126.686 45.4276 127.087 45.7475C127.492 46.0632 127.994 46.2211 128.593 46.2211ZM138.242 47.5328C137.651 47.5328 137.115 47.4214 136.633 47.1988C136.151 46.9721 135.768 46.6462 135.485 46.2211C135.202 45.792 135.06 45.2738 135.06 44.6666C135.06 44.1322 135.165 43.699 135.376 43.3671C135.586 43.031 135.868 42.7679 136.22 42.5776C136.572 42.3874 136.961 42.2457 137.386 42.1526C137.815 42.0554 138.246 41.9785 138.679 41.9218C139.246 41.8489 139.705 41.7943 140.058 41.7579C140.414 41.7174 140.673 41.6506 140.835 41.5575C141.001 41.4644 141.084 41.3024 141.084 41.0717V41.0231C141.084 40.4239 140.92 39.9584 140.592 39.6264C140.268 39.2945 139.776 39.1285 139.116 39.1285C138.432 39.1285 137.896 39.2783 137.507 39.5779C137.119 39.8774 136.845 40.1972 136.687 40.5373L135.327 40.0515C135.57 39.4847 135.894 39.0435 136.299 38.7277C136.708 38.4079 137.153 38.1852 137.635 38.0597C138.121 37.9302 138.598 37.8654 139.068 37.8654C139.367 37.8654 139.712 37.9019 140.1 37.9747C140.493 38.0435 140.871 38.1873 141.236 38.4059C141.604 38.6245 141.91 38.9544 142.153 39.3957C142.396 39.8369 142.517 40.428 142.517 41.1688V47.3141H141.084V46.0511H141.011C140.914 46.2535 140.752 46.4701 140.525 46.7008C140.299 46.9316 139.997 47.1279 139.62 47.2899C139.244 47.4518 138.784 47.5328 138.242 47.5328ZM138.461 46.2454C139.027 46.2454 139.505 46.1341 139.894 45.9114C140.286 45.6888 140.582 45.4013 140.78 45.0491C140.983 44.6969 141.084 44.3265 141.084 43.9379V42.6262C141.023 42.6991 140.89 42.7659 140.683 42.8266C140.481 42.8833 140.246 42.9339 139.979 42.9784C139.716 43.0189 139.459 43.0553 139.208 43.0877C138.961 43.1161 138.76 43.1404 138.606 43.1606C138.234 43.2092 137.886 43.2881 137.562 43.3974C137.242 43.5027 136.983 43.6626 136.785 43.8771C136.59 44.0877 136.493 44.3751 136.493 44.7394C136.493 45.2374 136.677 45.6139 137.046 45.8689C137.418 46.1199 137.89 46.2454 138.461 46.2454ZM151.74 40.0758L150.452 40.4401C150.371 40.2256 150.252 40.0171 150.094 39.8147C149.94 39.6082 149.73 39.4382 149.462 39.3046C149.195 39.171 148.853 39.1042 148.436 39.1042C147.865 39.1042 147.39 39.2358 147.009 39.4989C146.633 39.758 146.444 40.0879 146.444 40.4887C146.444 40.845 146.574 41.1263 146.833 41.3328C147.092 41.5393 147.497 41.7113 148.047 41.8489L149.432 42.189C150.266 42.3914 150.887 42.7011 151.296 43.1181C151.705 43.531 151.91 44.0634 151.91 44.7151C151.91 45.2495 151.756 45.7272 151.448 46.1482C151.144 46.5693 150.719 46.9012 150.173 47.1441C149.626 47.387 148.991 47.5085 148.266 47.5085C147.315 47.5085 146.527 47.302 145.904 46.8891C145.28 46.4762 144.886 45.873 144.72 45.0795L146.08 44.7394C146.21 45.2414 146.454 45.6179 146.815 45.8689C147.179 46.1199 147.655 46.2454 148.242 46.2454C148.91 46.2454 149.44 46.1037 149.833 45.8203C150.23 45.5329 150.428 45.1888 150.428 44.788C150.428 44.4641 150.315 44.1929 150.088 43.9743C149.861 43.7516 149.513 43.5857 149.043 43.4764L147.489 43.112C146.635 42.9096 146.007 42.5959 145.606 42.1708C145.21 41.7417 145.011 41.2053 145.011 40.5616C145.011 40.0353 145.159 39.5698 145.455 39.1649C145.754 38.7601 146.161 38.4423 146.675 38.2115C147.193 37.9808 147.78 37.8654 148.436 37.8654C149.359 37.8654 150.084 38.0678 150.61 38.4727C151.14 38.8775 151.517 39.4119 151.74 40.0758Z" fill="white"/>
<path d="M39.3704 72.1945V93.514H35.4979V77.1288H35.321C35.1822 77.344 34.9185 77.5765 34.5298 77.8263C34.1412 78.0692 33.6415 78.2774 33.0308 78.4509C32.427 78.6244 31.7226 78.7111 30.9176 78.7111V75.5882C31.6532 75.5882 32.309 75.4598 32.8851 75.203C33.4611 74.9462 33.9503 74.627 34.3528 74.2453C34.7623 73.8636 35.0781 73.4854 35.3002 73.1106C35.5222 72.7359 35.6437 72.4305 35.6645 72.1945H39.3704ZM52.6873 93.92C50.9731 93.92 49.5019 93.4863 48.2735 92.6188C47.0521 91.7444 46.1117 90.4848 45.4524 88.84C44.8001 87.1883 44.4739 85.2 44.4739 82.8751C44.4808 80.5502 44.8105 78.5723 45.4628 76.9415C46.1221 75.3036 47.0625 74.0544 48.2839 73.1939C49.5123 72.3333 50.9801 71.9031 52.6873 71.9031C54.3945 71.9031 55.8623 72.3333 57.0907 73.1939C58.3191 74.0544 59.2594 75.3036 59.9118 76.9415C60.5711 78.5793 60.9007 80.5572 60.9007 82.8751C60.9007 85.2069 60.5711 87.1987 59.9118 88.8504C59.2594 90.4952 58.3191 91.7513 57.0907 92.6188C55.8693 93.4863 54.4015 93.92 52.6873 93.92ZM52.6873 90.6617C54.0198 90.6617 55.0712 90.0059 55.8415 88.6942C56.6188 87.3757 57.0074 85.4359 57.0074 82.8751C57.0074 81.1818 56.8304 79.7591 56.4765 78.607C56.1226 77.455 55.6229 76.5875 54.9775 76.0046C54.3321 75.4147 53.5687 75.1197 52.6873 75.1197C51.3618 75.1197 50.3138 75.779 49.5435 77.0976C48.7732 78.4093 48.3845 80.3351 48.3776 82.8751C48.3707 84.5754 48.5407 86.005 48.8877 87.164C49.2416 88.323 49.7413 89.1974 50.3867 89.7873C51.0321 90.3702 51.799 90.6617 52.6873 90.6617ZM64.3594 93.514V90.7242L71.7609 83.4685C72.4687 82.7537 73.0586 82.1187 73.5305 81.5635C74.0025 81.0083 74.3564 80.4704 74.5924 79.9499C74.8283 79.4294 74.9463 78.8742 74.9463 78.2843C74.9463 77.6112 74.7936 77.0352 74.4883 76.5563C74.1829 76.0705 73.763 75.6957 73.2287 75.432C72.6943 75.1683 72.087 75.0364 71.4069 75.0364C70.706 75.0364 70.0918 75.1822 69.5644 75.4737C69.0369 75.7582 68.6275 76.1642 68.336 76.6916C68.0515 77.2191 67.9092 77.8471 67.9092 78.5758H64.2345C64.2345 77.2225 64.5433 76.0462 65.161 75.0469C65.7786 74.0475 66.6288 73.2737 67.7114 72.7254C68.801 72.1772 70.0502 71.9031 71.459 71.9031C72.8886 71.9031 74.1447 72.1703 75.2274 72.7046C76.31 73.239 77.1497 73.9712 77.7466 74.9011C78.3503 75.8311 78.6522 76.8929 78.6522 78.0866C78.6522 78.8846 78.4995 79.6689 78.1942 80.4392C77.8888 81.2095 77.351 82.0631 76.5806 83C75.8173 83.9369 74.745 85.0716 73.364 86.4041L69.6893 90.1412V90.287H78.9749V93.514H64.3594Z" fill="white"/>
<path d="M138.654 86.6403V79.7697H139.82V86.6403H138.654ZM135.801 83.7879V82.622H142.672V83.7879H135.801ZM148.586 77.8543V88.514H147.295V79.7281H147.212C147.163 79.8252 147.038 79.9363 146.837 80.0612C146.636 80.1826 146.376 80.2902 146.056 80.3839C145.737 80.4741 145.373 80.5192 144.963 80.5192V79.4366C145.376 79.4366 145.734 79.362 146.036 79.2128C146.338 79.0636 146.589 78.8883 146.79 78.6871C146.995 78.4858 147.15 78.3037 147.254 78.1406C147.361 77.9775 147.424 77.8821 147.441 77.8543H148.586ZM155.056 77.8543V88.514H153.765V79.7281H153.682C153.633 79.8252 153.508 79.9363 153.307 80.0612C153.106 80.1826 152.845 80.2902 152.526 80.3839C152.207 80.4741 151.843 80.5192 151.433 80.5192V79.4366C151.846 79.4366 152.204 79.362 152.505 79.2128C152.807 79.0636 153.059 78.8883 153.26 78.6871C153.465 78.4858 153.619 78.3037 153.723 78.1406C153.831 77.9775 153.893 77.8821 153.911 77.8543H155.056ZM158.397 88.5973C158.141 88.5973 157.92 88.5054 157.736 88.3215C157.552 88.1375 157.461 87.9172 157.461 87.6604C157.461 87.4036 157.552 87.1833 157.736 86.9994C157.92 86.8155 158.141 86.7235 158.397 86.7235C158.654 86.7235 158.875 86.8155 159.058 86.9994C159.242 87.1833 159.334 87.4036 159.334 87.6604C159.334 87.8305 159.291 87.9866 159.204 88.1289C159.121 88.2711 159.008 88.3856 158.866 88.4724C158.727 88.5557 158.571 88.5973 158.397 88.5973ZM164.623 88.6598C163.838 88.6598 163.17 88.4464 162.619 88.0196C162.067 87.5893 161.645 86.9664 161.354 86.151C161.062 85.3321 160.917 84.3431 160.917 83.1842C160.917 82.0321 161.062 81.0484 161.354 80.233C161.649 79.414 162.072 78.7894 162.624 78.3592C163.179 77.9254 163.845 77.7086 164.623 77.7086C165.4 77.7086 166.064 77.9254 166.616 78.3592C167.171 78.7894 167.595 79.414 167.886 80.233C168.181 81.0484 168.328 82.0321 168.328 83.1842C168.328 84.3431 168.183 85.3321 167.891 86.151C167.6 86.9664 167.178 87.5893 166.626 88.0196C166.075 88.4464 165.407 88.6598 164.623 88.6598ZM164.623 87.5147C165.4 87.5147 166.004 87.1399 166.434 86.3904C166.864 85.6409 167.079 84.5722 167.079 83.1842C167.079 82.2612 166.98 81.4752 166.783 80.8263C166.588 80.1774 166.307 79.683 165.939 79.3429C165.575 79.0029 165.136 78.8328 164.623 78.8328C163.852 78.8328 163.25 79.2128 162.816 79.9727C162.383 80.7292 162.166 81.7996 162.166 83.1842C162.166 84.1072 162.263 84.8914 162.457 85.5368C162.652 86.1822 162.931 86.6732 163.295 87.0098C163.663 87.3464 164.106 87.5147 164.623 87.5147ZM173.721 77.8543V88.514H172.43V79.7281H172.347C172.298 79.8252 172.173 79.9363 171.972 80.0612C171.771 80.1826 171.51 80.2902 171.191 80.3839C170.872 80.4741 170.508 80.5192 170.098 80.5192V79.4366C170.511 79.4366 170.869 79.362 171.17 79.2128C171.472 79.0636 171.724 78.8883 171.925 78.6871C172.13 78.4858 172.284 78.3037 172.388 78.1406C172.496 77.9775 172.558 77.8821 172.576 77.8543H173.721ZM182.21 86.5153V85.9532C182.21 85.5646 182.29 85.2089 182.45 84.8862C182.613 84.56 182.849 84.2998 183.157 84.1054C183.47 83.9077 183.848 83.8088 184.292 83.8088C184.743 83.8088 185.121 83.9077 185.427 84.1054C185.732 84.2998 185.963 84.56 186.119 84.8862C186.275 85.2089 186.353 85.5646 186.353 85.9532V86.5153C186.353 86.904 186.273 87.2614 186.114 87.5876C185.958 87.9103 185.725 88.1705 185.416 88.3683C185.111 88.5626 184.736 88.6598 184.292 88.6598C183.841 88.6598 183.461 88.5626 183.152 88.3683C182.843 88.1705 182.609 87.9103 182.45 87.5876C182.29 87.2614 182.21 86.904 182.21 86.5153ZM183.272 85.9532V86.5153C183.272 86.838 183.348 87.1278 183.501 87.3846C183.654 87.6379 183.917 87.7645 184.292 87.7645C184.656 87.7645 184.913 87.6379 185.062 87.3846C185.215 87.1278 185.291 86.838 185.291 86.5153V85.9532C185.291 85.6305 185.219 85.3425 185.073 85.0892C184.927 84.8324 184.667 84.704 184.292 84.704C183.928 84.704 183.666 84.8324 183.506 85.0892C183.35 85.3425 183.272 85.6305 183.272 85.9532ZM176.901 80.4151V79.853C176.901 79.4644 176.981 79.1087 177.14 78.786C177.304 78.4598 177.54 78.1996 177.848 78.0052C178.161 77.8074 178.539 77.7086 178.983 77.7086C179.434 77.7086 179.812 77.8074 180.118 78.0052C180.423 78.1996 180.654 78.4598 180.81 78.786C180.966 79.1087 181.044 79.4644 181.044 79.853V80.4151C181.044 80.8038 180.964 81.1612 180.805 81.4873C180.649 81.8101 180.416 82.0703 180.107 82.2681C179.802 82.4624 179.427 82.5596 178.983 82.5596C178.532 82.5596 178.152 82.4624 177.843 82.2681C177.534 82.0703 177.3 81.8101 177.14 81.4873C176.981 81.1612 176.901 80.8038 176.901 80.4151ZM177.963 79.853V80.4151C177.963 80.7378 178.039 81.0276 178.192 81.2844C178.345 81.5377 178.608 81.6643 178.983 81.6643C179.347 81.6643 179.604 81.5377 179.753 81.2844C179.906 81.0276 179.982 80.7378 179.982 80.4151V79.853C179.982 79.5303 179.91 79.2423 179.764 78.989C179.618 78.7322 179.358 78.6038 178.983 78.6038C178.619 78.6038 178.357 78.7322 178.197 78.989C178.041 79.2423 177.963 79.5303 177.963 79.853ZM177.297 88.514L184.625 77.8543H185.812L178.483 88.514H177.297Z" fill="#C3EC1D"/>
<path fill-rule="evenodd" clip-rule="evenodd" d="M208.505 80.5921L215.278 78.6283L213.592 85.4758L211.489 83.4569L208.096 86.9905C207.981 87.1105 207.822 87.1783 207.656 87.1783C207.49 87.1783 207.331 87.1105 207.215 86.9905L204.724 84.3959L201.061 88.212C200.827 88.4553 200.441 88.4632 200.198 88.2296C199.954 87.996 199.946 87.6094 200.18 87.3661L204.284 83.0911C204.399 82.9711 204.558 82.9033 204.724 82.9033C204.891 82.9033 205.05 82.9711 205.165 83.0911L207.656 85.6857L210.608 82.611L208.505 80.5921Z" fill="#C3EC1D"/>
</svg>
