<svg width="219" height="48" viewBox="0 0 219 48" fill="none" xmlns="http://www.w3.org/2000/svg">
<rect x="0.5" y="0.5" width="218" height="47" rx="7.5" fill="#0A0A0A"/>
<rect x="0.5" y="0.5" width="218" height="47" rx="7.5" stroke="#3B3B3B"/>
<path d="M35.5 15.667H19.5C18.4 15.667 17.51 16.567 17.51 17.667L17.5 29.667C17.5 30.767 18.4 31.667 19.5 31.667H35.5C36.6 31.667 37.5 30.767 37.5 29.667V17.667C37.5 16.567 36.6 15.667 35.5 15.667ZM35.5 19.667L27.5 24.667L19.5 19.667V17.667L27.5 22.667L35.5 17.667V19.667Z" fill="white"/>
<path d="M49.2273 21.2727H50.5682V30.6364C50.5682 31.1742 50.4754 31.6402 50.2898 32.0341C50.108 32.428 49.8314 32.733 49.4602 32.9489C49.0928 33.1648 48.6288 33.2727 48.0682 33.2727C48.0227 33.2727 47.9773 33.2727 47.9318 33.2727C47.8864 33.2727 47.8409 33.2727 47.7955 33.2727V32.0227C47.8409 32.0227 47.8826 32.0227 47.9205 32.0227C47.9583 32.0227 48 32.0227 48.0455 32.0227C48.4545 32.0227 48.7538 31.9015 48.9432 31.6591C49.1326 31.4205 49.2273 31.0795 49.2273 30.6364V21.2727ZM49.8864 19.8182C49.625 19.8182 49.3996 19.7292 49.2102 19.5511C49.0246 19.3731 48.9318 19.1591 48.9318 18.9091C48.9318 18.6591 49.0246 18.4451 49.2102 18.267C49.3996 18.089 49.625 18 49.8864 18C50.1477 18 50.3712 18.089 50.5568 18.267C50.7462 18.4451 50.8409 18.6591 50.8409 18.9091C50.8409 19.1591 50.7462 19.3731 50.5568 19.5511C50.3712 19.7292 50.1477 19.8182 49.8864 19.8182ZM54.3651 24.75V30H53.0241V18.3636H54.3651V22.6364H54.4787C54.6832 22.1856 54.9901 21.8277 55.3991 21.5625C55.812 21.2936 56.3613 21.1591 57.0469 21.1591C57.6416 21.1591 58.1624 21.2784 58.6094 21.517C59.0563 21.7519 59.4029 22.1136 59.6491 22.6023C59.8991 23.0871 60.0241 23.7045 60.0241 24.4545V30H58.6832V24.5455C58.6832 23.8523 58.5033 23.3163 58.1435 22.9375C57.7874 22.5549 57.2931 22.3636 56.6605 22.3636C56.2211 22.3636 55.8272 22.4564 55.4787 22.642C55.134 22.8277 54.8613 23.0985 54.6605 23.4545C54.4635 23.8106 54.3651 24.2424 54.3651 24.75ZM65.0455 30.2045C64.4924 30.2045 63.9905 30.1004 63.5398 29.892C63.089 29.6799 62.7311 29.375 62.4659 28.9773C62.2008 28.5758 62.0682 28.0909 62.0682 27.5227C62.0682 27.0227 62.1667 26.6174 62.3636 26.3068C62.5606 25.9924 62.8239 25.7462 63.1534 25.5682C63.483 25.3902 63.8466 25.2576 64.2443 25.1705C64.6458 25.0795 65.0492 25.0076 65.4545 24.9545C65.9848 24.8864 66.4148 24.8352 66.7443 24.8011C67.0777 24.7633 67.3201 24.7008 67.4716 24.6136C67.6269 24.5265 67.7045 24.375 67.7045 24.1591V24.1136C67.7045 23.553 67.5511 23.1174 67.2443 22.8068C66.9413 22.4962 66.4811 22.3409 65.8636 22.3409C65.2235 22.3409 64.7216 22.4811 64.358 22.7614C63.9943 23.0417 63.7386 23.3409 63.5909 23.6591L62.3182 23.2045C62.5455 22.6742 62.8485 22.2614 63.2273 21.9659C63.6098 21.6667 64.0265 21.4583 64.4773 21.3409C64.9318 21.2197 65.3788 21.1591 65.8182 21.1591C66.0985 21.1591 66.4205 21.1932 66.7841 21.2614C67.1515 21.3258 67.5057 21.4602 67.8466 21.6648C68.1913 21.8693 68.4773 22.178 68.7045 22.5909C68.9318 23.0038 69.0455 23.5568 69.0455 24.25V30H67.7045V28.8182H67.6364C67.5455 29.0076 67.3939 29.2102 67.1818 29.4261C66.9697 29.642 66.6875 29.8258 66.3352 29.9773C65.983 30.1288 65.553 30.2045 65.0455 30.2045ZM65.25 29C65.7803 29 66.2273 28.8958 66.5909 28.6875C66.9583 28.4792 67.2348 28.2102 67.4205 27.8807C67.6098 27.5511 67.7045 27.2045 67.7045 26.8409V25.6136C67.6477 25.6818 67.5227 25.7443 67.3295 25.8011C67.1402 25.8542 66.9205 25.9015 66.6705 25.9432C66.4242 25.9811 66.1837 26.0152 65.9489 26.0455C65.7178 26.072 65.5303 26.0947 65.3864 26.1136C65.0379 26.1591 64.7121 26.233 64.4091 26.3352C64.1098 26.4337 63.8674 26.5833 63.6818 26.7841C63.5 26.9811 63.4091 27.25 63.4091 27.5909C63.4091 28.0568 63.5814 28.4091 63.9261 28.6477C64.2746 28.8826 64.7159 29 65.25 29ZM72.8338 24.75V30H71.4929V21.2727H72.7884V22.6364H72.902C73.1065 22.1932 73.4171 21.8371 73.8338 21.5682C74.2505 21.2955 74.7884 21.1591 75.4474 21.1591C76.0384 21.1591 76.5554 21.2803 76.9986 21.5227C77.4418 21.7614 77.7865 22.125 78.0327 22.6136C78.2789 23.0985 78.402 23.7121 78.402 24.4545V30H77.0611V24.5455C77.0611 23.8598 76.883 23.3258 76.527 22.9432C76.1709 22.5568 75.6823 22.3636 75.0611 22.3636C74.633 22.3636 74.2505 22.4564 73.9134 22.642C73.58 22.8277 73.3168 23.0985 73.1236 23.4545C72.9304 23.8106 72.8338 24.2424 72.8338 24.75ZM82.1023 26.8182L82.0795 25.1591H82.3523L86.1705 21.2727H87.8295L83.7614 25.3864H83.6477L82.1023 26.8182ZM80.8523 30V18.3636H82.1932V30H80.8523ZM86.3977 30L82.9886 25.6818L83.9432 24.75L88.1023 30H86.3977ZM92.8551 30.1818C92.0142 30.1818 91.2888 29.9962 90.679 29.625C90.0729 29.25 89.6051 28.7273 89.2756 28.0568C88.9498 27.3826 88.7869 26.5985 88.7869 25.7045C88.7869 24.8106 88.9498 24.0227 89.2756 23.3409C89.6051 22.6553 90.0634 22.1212 90.6506 21.7386C91.2415 21.3523 91.9309 21.1591 92.7188 21.1591C93.1733 21.1591 93.6222 21.2348 94.0653 21.3864C94.5085 21.5379 94.9119 21.7841 95.2756 22.125C95.6392 22.4621 95.929 22.9091 96.1449 23.4659C96.3608 24.0227 96.4688 24.7083 96.4688 25.5227V26.0909H89.7415V24.9318H95.1051C95.1051 24.4394 95.0066 24 94.8097 23.6136C94.6165 23.2273 94.34 22.9223 93.9801 22.6989C93.6241 22.4754 93.2036 22.3636 92.7188 22.3636C92.1847 22.3636 91.7225 22.4962 91.3324 22.7614C90.946 23.0227 90.6487 23.3636 90.4403 23.7841C90.232 24.2045 90.1278 24.6553 90.1278 25.1364V25.9091C90.1278 26.5682 90.2415 27.1269 90.4688 27.5852C90.6998 28.0398 91.0199 28.3864 91.429 28.625C91.8381 28.8598 92.3134 28.9773 92.8551 28.9773C93.2074 28.9773 93.5256 28.928 93.8097 28.8295C94.0975 28.7273 94.3456 28.5758 94.554 28.375C94.7623 28.1705 94.9233 27.9167 95.0369 27.6136L96.3324 27.9773C96.196 28.4167 95.9669 28.803 95.6449 29.1364C95.3229 29.4659 94.9252 29.7235 94.4517 29.9091C93.9782 30.0909 93.446 30.1818 92.8551 30.1818ZM105.379 21.2727L102.152 30H100.788L97.5611 21.2727H99.0156L101.425 28.2273H101.516L103.925 21.2727H105.379ZM107.149 30V21.2727H108.49V30H107.149ZM107.831 19.8182C107.57 19.8182 107.344 19.7292 107.155 19.5511C106.969 19.3731 106.876 19.1591 106.876 18.9091C106.876 18.6591 106.969 18.4451 107.155 18.267C107.344 18.089 107.57 18 107.831 18C108.092 18 108.316 18.089 108.501 18.267C108.691 18.4451 108.786 18.6591 108.786 18.9091C108.786 19.1591 108.691 19.3731 108.501 19.5511C108.316 19.7292 108.092 19.8182 107.831 19.8182ZM117.651 33.0682C116.491 33.0682 115.467 32.9091 114.577 32.5909C113.687 32.2765 112.938 31.8125 112.332 31.1989C111.726 30.5852 111.268 29.8333 110.957 28.9432C110.647 28.053 110.491 27.0341 110.491 25.8864C110.491 24.7765 110.649 23.7841 110.963 22.9091C111.281 22.0341 111.741 21.2917 112.344 20.6818C112.95 20.0682 113.685 19.6004 114.548 19.2784C115.416 18.9564 116.397 18.7955 117.491 18.7955C118.556 18.7955 119.488 18.9697 120.287 19.3182C121.09 19.6629 121.76 20.1307 122.298 20.7216C122.84 21.3087 123.245 21.9697 123.514 22.7045C123.787 23.4394 123.923 24.197 123.923 24.9773C123.923 25.5265 123.897 26.0833 123.844 26.6477C123.791 27.2121 123.679 27.7311 123.509 28.2045C123.338 28.6742 123.075 29.053 122.719 29.3409C122.366 29.6288 121.889 29.7727 121.287 29.7727C121.022 29.7727 120.73 29.7311 120.412 29.6477C120.094 29.5644 119.812 29.4261 119.565 29.233C119.319 29.0398 119.173 28.7803 119.128 28.4545H119.06C118.969 28.6742 118.829 28.8826 118.639 29.0795C118.454 29.2765 118.209 29.4337 117.906 29.5511C117.607 29.6686 117.241 29.7197 116.81 29.7045C116.317 29.6856 115.884 29.5758 115.509 29.375C115.134 29.1705 114.819 28.8939 114.565 28.5455C114.315 28.1932 114.126 27.786 113.997 27.3239C113.872 26.858 113.81 26.3561 113.81 25.8182C113.81 25.3068 113.885 24.839 114.037 24.4148C114.188 23.9905 114.399 23.6193 114.668 23.3011C114.94 22.983 115.259 22.7292 115.622 22.5398C115.99 22.3466 116.385 22.2273 116.81 22.1818C117.188 22.1439 117.533 22.161 117.844 22.233C118.154 22.3011 118.41 22.4053 118.611 22.5455C118.812 22.6818 118.938 22.8333 118.991 23H119.06V22.3636H120.264V27.5C120.264 27.8182 120.353 28.0985 120.531 28.3409C120.709 28.5833 120.969 28.7045 121.31 28.7045C121.696 28.7045 121.991 28.572 122.196 28.3068C122.404 28.0417 122.546 27.6326 122.622 27.0795C122.702 26.5265 122.741 25.8182 122.741 24.9545C122.741 24.447 122.671 23.947 122.531 23.4545C122.395 22.9583 122.187 22.4943 121.906 22.0625C121.63 21.6307 121.279 21.25 120.855 20.9205C120.431 20.5909 119.933 20.3333 119.361 20.1477C118.793 19.9583 118.147 19.8636 117.423 19.8636C116.533 19.8636 115.736 20.0019 115.031 20.2784C114.33 20.5511 113.734 20.9508 113.241 21.4773C112.753 22 112.38 22.6364 112.122 23.3864C111.868 24.1326 111.741 24.9811 111.741 25.9318C111.741 26.8977 111.868 27.7557 112.122 28.5057C112.38 29.2557 112.759 29.8883 113.259 30.4034C113.762 30.9186 114.385 31.3087 115.128 31.5739C115.87 31.8428 116.726 31.9773 117.696 31.9773C118.113 31.9773 118.524 31.9375 118.929 31.858C119.334 31.7784 119.692 31.6913 120.003 31.5966C120.313 31.5019 120.537 31.4318 120.673 31.3864L120.991 32.4318C120.757 32.5303 120.45 32.6288 120.071 32.7273C119.696 32.8258 119.295 32.9072 118.866 32.9716C118.442 33.036 118.037 33.0682 117.651 33.0682ZM116.991 28.5455C117.499 28.5455 117.91 28.4432 118.224 28.2386C118.539 28.0341 118.768 27.7254 118.912 27.3125C119.056 26.8996 119.128 26.3788 119.128 25.75C119.128 25.1136 119.048 24.6174 118.889 24.2614C118.73 23.9053 118.495 23.6553 118.185 23.5114C117.874 23.3674 117.491 23.2955 117.037 23.2955C116.605 23.2955 116.236 23.4091 115.929 23.6364C115.626 23.8598 115.393 24.1591 115.23 24.5341C115.071 24.9053 114.991 25.3106 114.991 25.75C114.991 26.2348 115.056 26.6913 115.185 27.1193C115.313 27.5436 115.524 27.8883 115.815 28.1534C116.107 28.4148 116.499 28.5455 116.991 28.5455ZM129.453 33.4545C128.805 33.4545 128.249 33.3712 127.783 33.2045C127.317 33.0417 126.929 32.8258 126.618 32.5568C126.311 32.2917 126.067 32.0076 125.885 31.7045L126.953 30.9545C127.074 31.1136 127.228 31.2955 127.413 31.5C127.599 31.7083 127.853 31.8883 128.175 32.0398C128.5 32.1951 128.927 32.2727 129.453 32.2727C130.158 32.2727 130.739 32.1023 131.197 31.7614C131.656 31.4205 131.885 30.8864 131.885 30.1591V28.3864H131.771C131.673 28.5455 131.533 28.7424 131.351 28.9773C131.173 29.2083 130.915 29.4148 130.578 29.5966C130.245 29.7746 129.794 29.8636 129.226 29.8636C128.521 29.8636 127.889 29.697 127.328 29.3636C126.771 29.0303 126.33 28.5455 126.004 27.9091C125.682 27.2727 125.521 26.5 125.521 25.5909C125.521 24.697 125.679 23.9186 125.993 23.2557C126.307 22.589 126.745 22.0739 127.305 21.7102C127.866 21.3428 128.514 21.1591 129.249 21.1591C129.817 21.1591 130.268 21.2538 130.601 21.4432C130.938 21.6288 131.196 21.8409 131.374 22.0795C131.555 22.3144 131.696 22.5076 131.794 22.6591H131.93V21.2727H133.226V30.25C133.226 31 133.055 31.6098 132.714 32.0795C132.377 32.553 131.923 32.8996 131.351 33.1193C130.783 33.3428 130.15 33.4545 129.453 33.4545ZM129.408 28.6591C129.946 28.6591 130.4 28.536 130.771 28.2898C131.143 28.0436 131.425 27.6894 131.618 27.2273C131.811 26.7652 131.908 26.2121 131.908 25.5682C131.908 24.9394 131.813 24.3845 131.624 23.9034C131.434 23.4223 131.154 23.0455 130.783 22.7727C130.411 22.5 129.953 22.3636 129.408 22.3636C128.839 22.3636 128.366 22.5076 127.987 22.7955C127.612 23.0833 127.33 23.4697 127.141 23.9545C126.955 24.4394 126.862 24.9773 126.862 25.5682C126.862 26.1742 126.957 26.7102 127.146 27.1761C127.339 27.6383 127.624 28.0019 127.999 28.267C128.377 28.5284 128.847 28.6591 129.408 28.6591ZM135.68 30V21.2727H136.976V22.6364H137.089C137.271 22.1705 137.565 21.8087 137.97 21.5511C138.375 21.2898 138.862 21.1591 139.43 21.1591C140.006 21.1591 140.485 21.2898 140.868 21.5511C141.254 21.8087 141.555 22.1705 141.771 22.6364H141.862C142.086 22.1856 142.421 21.8277 142.868 21.5625C143.315 21.2936 143.851 21.1591 144.476 21.1591C145.256 21.1591 145.894 21.4034 146.391 21.892C146.887 22.3769 147.135 23.1326 147.135 24.1591V30H145.794V24.1591C145.794 23.5152 145.618 23.0549 145.266 22.7784C144.913 22.5019 144.499 22.3636 144.021 22.3636C143.408 22.3636 142.932 22.5492 142.595 22.9205C142.258 23.2879 142.089 23.7538 142.089 24.3182V30H140.726V24.0227C140.726 23.5265 140.565 23.1269 140.243 22.8239C139.921 22.517 139.506 22.3636 138.999 22.3636C138.65 22.3636 138.324 22.4564 138.021 22.642C137.722 22.8277 137.48 23.0852 137.294 23.4148C137.112 23.7405 137.021 24.1174 137.021 24.5455V30H135.68ZM152.155 30.2045C151.602 30.2045 151.1 30.1004 150.649 29.892C150.198 29.6799 149.84 29.375 149.575 28.9773C149.31 28.5758 149.178 28.0909 149.178 27.5227C149.178 27.0227 149.276 26.6174 149.473 26.3068C149.67 25.9924 149.933 25.7462 150.263 25.5682C150.592 25.3902 150.956 25.2576 151.354 25.1705C151.755 25.0795 152.159 25.0076 152.564 24.9545C153.094 24.8864 153.524 24.8352 153.854 24.8011C154.187 24.7633 154.429 24.7008 154.581 24.6136C154.736 24.5265 154.814 24.375 154.814 24.1591V24.1136C154.814 23.553 154.661 23.1174 154.354 22.8068C154.051 22.4962 153.59 22.3409 152.973 22.3409C152.333 22.3409 151.831 22.4811 151.467 22.7614C151.104 23.0417 150.848 23.3409 150.7 23.6591L149.428 23.2045C149.655 22.6742 149.958 22.2614 150.337 21.9659C150.719 21.6667 151.136 21.4583 151.587 21.3409C152.041 21.2197 152.488 21.1591 152.928 21.1591C153.208 21.1591 153.53 21.1932 153.893 21.2614C154.261 21.3258 154.615 21.4602 154.956 21.6648C155.301 21.8693 155.587 22.178 155.814 22.5909C156.041 23.0038 156.155 23.5568 156.155 24.25V30H154.814V28.8182H154.746C154.655 29.0076 154.503 29.2102 154.291 29.4261C154.079 29.642 153.797 29.8258 153.445 29.9773C153.092 30.1288 152.662 30.2045 152.155 30.2045ZM152.359 29C152.89 29 153.337 28.8958 153.7 28.6875C154.068 28.4792 154.344 28.2102 154.53 27.8807C154.719 27.5511 154.814 27.2045 154.814 26.8409V25.6136C154.757 25.6818 154.632 25.7443 154.439 25.8011C154.25 25.8542 154.03 25.9015 153.78 25.9432C153.534 25.9811 153.293 26.0152 153.058 26.0455C152.827 26.072 152.64 26.0947 152.496 26.1136C152.147 26.1591 151.821 26.233 151.518 26.3352C151.219 26.4337 150.977 26.5833 150.791 26.7841C150.609 26.9811 150.518 27.25 150.518 27.5909C150.518 28.0568 150.691 28.4091 151.036 28.6477C151.384 28.8826 151.825 29 152.359 29ZM158.602 30V21.2727H159.943V30H158.602ZM159.284 19.8182C159.023 19.8182 158.797 19.7292 158.608 19.5511C158.422 19.3731 158.33 19.1591 158.33 18.9091C158.33 18.6591 158.422 18.4451 158.608 18.267C158.797 18.089 159.023 18 159.284 18C159.545 18 159.769 18.089 159.955 18.267C160.144 18.4451 160.239 18.6591 160.239 18.9091C160.239 19.1591 160.144 19.3731 159.955 19.5511C159.769 19.7292 159.545 19.8182 159.284 19.8182ZM163.74 18.3636V30H162.399V18.3636H163.74ZM167.173 30.0909C166.893 30.0909 166.652 29.9905 166.452 29.7898C166.251 29.589 166.151 29.3485 166.151 29.0682C166.151 28.7879 166.251 28.5473 166.452 28.3466C166.652 28.1458 166.893 28.0455 167.173 28.0455C167.454 28.0455 167.694 28.1458 167.895 28.3466C168.096 28.5473 168.196 28.7879 168.196 29.0682C168.196 29.2538 168.149 29.4242 168.054 29.5795C167.963 29.7348 167.84 29.8598 167.685 29.9545C167.533 30.0455 167.363 30.0909 167.173 30.0909ZM174.148 30.1818C173.33 30.1818 172.625 29.9886 172.034 29.6023C171.443 29.2159 170.989 28.6837 170.67 28.0057C170.352 27.3277 170.193 26.553 170.193 25.6818C170.193 24.7955 170.356 24.0133 170.682 23.3352C171.011 22.6534 171.47 22.1212 172.057 21.7386C172.648 21.3523 173.337 21.1591 174.125 21.1591C174.739 21.1591 175.292 21.2727 175.784 21.5C176.277 21.7273 176.68 22.0455 176.994 22.4545C177.309 22.8636 177.504 23.3409 177.58 23.8864H176.239C176.136 23.4886 175.909 23.1364 175.557 22.8295C175.208 22.5189 174.739 22.3636 174.148 22.3636C173.625 22.3636 173.167 22.5 172.773 22.7727C172.383 23.0417 172.078 23.4223 171.858 23.9148C171.642 24.4034 171.534 24.9773 171.534 25.6364C171.534 26.3106 171.64 26.8977 171.852 27.3977C172.068 27.8977 172.371 28.286 172.761 28.5625C173.155 28.839 173.617 28.9773 174.148 28.9773C174.496 28.9773 174.812 28.9167 175.097 28.7955C175.381 28.6742 175.621 28.5 175.818 28.2727C176.015 28.0455 176.155 27.7727 176.239 27.4545H177.58C177.504 27.9697 177.316 28.4337 177.017 28.8466C176.722 29.2557 176.33 29.5814 175.841 29.8239C175.356 30.0625 174.792 30.1818 174.148 30.1818ZM183.085 30.1818C182.297 30.1818 181.606 29.9943 181.011 29.6193C180.42 29.2443 179.958 28.7197 179.625 28.0455C179.295 27.3712 179.131 26.5833 179.131 25.6818C179.131 24.7727 179.295 23.9792 179.625 23.3011C179.958 22.6231 180.42 22.0966 181.011 21.7216C181.606 21.3466 182.297 21.1591 183.085 21.1591C183.873 21.1591 184.563 21.3466 185.153 21.7216C185.748 22.0966 186.21 22.6231 186.54 23.3011C186.873 23.9792 187.04 24.7727 187.04 25.6818C187.04 26.5833 186.873 27.3712 186.54 28.0455C186.21 28.7197 185.748 29.2443 185.153 29.6193C184.563 29.9943 183.873 30.1818 183.085 30.1818ZM183.085 28.9773C183.684 28.9773 184.176 28.8239 184.562 28.517C184.949 28.2102 185.235 27.8068 185.42 27.3068C185.606 26.8068 185.699 26.2652 185.699 25.6818C185.699 25.0985 185.606 24.5549 185.42 24.0511C185.235 23.5473 184.949 23.1402 184.562 22.8295C184.176 22.5189 183.684 22.3636 183.085 22.3636C182.487 22.3636 181.994 22.5189 181.608 22.8295C181.222 23.1402 180.936 23.5473 180.75 24.0511C180.564 24.5549 180.472 25.0985 180.472 25.6818C180.472 26.2652 180.564 26.8068 180.75 27.3068C180.936 27.8068 181.222 28.2102 181.608 28.517C181.994 28.8239 182.487 28.9773 183.085 28.9773ZM189.087 30V21.2727H190.382V22.6364H190.496C190.678 22.1705 190.971 21.8087 191.376 21.5511C191.782 21.2898 192.268 21.1591 192.837 21.1591C193.412 21.1591 193.892 21.2898 194.274 21.5511C194.661 21.8087 194.962 22.1705 195.178 22.6364H195.268C195.492 22.1856 195.827 21.8277 196.274 21.5625C196.721 21.2936 197.257 21.1591 197.882 21.1591C198.662 21.1591 199.301 21.4034 199.797 21.892C200.293 22.3769 200.541 23.1326 200.541 24.1591V30H199.2V24.1591C199.2 23.5152 199.024 23.0549 198.672 22.7784C198.32 22.5019 197.905 22.3636 197.428 22.3636C196.814 22.3636 196.339 22.5492 196.001 22.9205C195.664 23.2879 195.496 23.7538 195.496 24.3182V30H194.132V24.0227C194.132 23.5265 193.971 23.1269 193.649 22.8239C193.327 22.517 192.912 22.3636 192.405 22.3636C192.056 22.3636 191.731 22.4564 191.428 22.642C191.128 22.8277 190.886 23.0852 190.7 23.4148C190.518 23.7405 190.428 24.1174 190.428 24.5455V30H189.087Z" fill="white"/>
</svg>
