<svg width="338" height="106" viewBox="0 0 338 106" fill="none" xmlns="http://www.w3.org/2000/svg">
<path d="M71.0896 17.1494C71.0896 17.638 70.8942 18.0778 70.5033 18.4686C70.2101 18.7618 69.8193 18.9084 69.3307 18.9084H21.4002C20.9116 18.9084 20.6673 19.1527 20.6673 19.6412V42.3606C20.6673 42.8492 20.9116 43.0935 21.4002 43.0935H52.9141C53.4027 43.0935 53.7936 43.2889 54.0867 43.6798C54.4776 43.9729 54.673 44.3638 54.673 44.8524V59.0703C54.673 59.5589 54.4776 59.9986 54.0867 60.3895C53.7936 60.6827 53.4027 60.8292 52.9141 60.8292H21.4002C20.9116 60.8292 20.6673 61.0735 20.6673 61.5621V102.017C20.6673 102.506 20.4719 102.946 20.081 103.336C19.7878 103.63 19.397 103.776 18.9084 103.776H1.75892C1.27033 103.776 0.830605 103.63 0.439734 103.336C0.146581 102.946 4.56802e-06 102.506 4.56802e-06 102.017V2.93152C4.56802e-06 2.44294 0.146581 2.05206 0.439734 1.75891C0.830605 1.36804 1.27033 1.1726 1.75892 1.1726H69.3307C69.8193 1.1726 70.2101 1.36804 70.5033 1.75891C70.8942 2.05206 71.0896 2.44294 71.0896 2.93152V17.1494ZM118.374 105.388C110.752 105.388 104.01 103.825 98.1467 100.698C92.3814 97.5711 87.8863 93.2226 84.6617 87.6527C81.437 81.9851 79.8246 75.4869 79.8246 68.1581V36.7907C79.8246 29.5596 81.437 23.1591 84.6617 17.5892C87.8863 12.0193 92.3814 7.71969 98.1467 4.69044C104.01 1.56348 110.752 -3.61976e-06 118.374 -3.61976e-06C126.094 -3.61976e-06 132.836 1.56348 138.602 4.69044C144.465 7.71969 149.009 12.0193 152.233 17.5892C155.458 23.1591 157.07 29.5596 157.07 36.7907V68.1581C157.07 75.4869 155.458 81.9851 152.233 87.6527C149.009 93.3204 144.465 97.7177 138.602 100.845C132.836 103.874 126.094 105.388 118.374 105.388ZM118.374 87.6527C123.749 87.6527 128.097 85.9427 131.42 82.5226C134.742 79.1024 136.403 74.5586 136.403 68.8909V36.6441C136.403 30.9765 134.742 26.4326 131.42 23.0125C128.195 19.4947 123.846 17.7358 118.374 17.7358C113 17.7358 108.651 19.4947 105.329 23.0125C102.104 26.4326 100.492 30.9765 100.492 36.6441V68.8909C100.492 74.5586 102.104 79.1024 105.329 82.5226C108.651 85.9427 113 87.6527 118.374 87.6527ZM208.972 104.949C201.35 104.949 194.657 103.483 188.891 100.551C183.126 97.5222 178.68 93.3204 175.553 87.9459C172.426 82.5714 170.862 76.3663 170.862 69.3307V35.4715C170.862 28.4358 172.426 22.2308 175.553 16.8563C178.68 11.4818 183.126 7.32882 188.891 4.39729C194.657 1.46576 201.35 -3.61976e-06 208.972 -3.61976e-06C216.497 -3.61976e-06 223.092 1.4169 228.76 4.25071C234.525 6.98681 238.972 10.9444 242.099 16.1234C245.323 21.2047 246.936 27.1166 246.936 33.8592C246.936 34.7386 246.349 35.2761 245.177 35.4715L228.027 36.4975H227.734C226.757 36.4975 226.268 35.9601 226.268 34.8852C226.268 29.7062 224.656 25.5532 221.431 22.4262C218.304 19.2992 214.151 17.7358 208.972 17.7358C203.696 17.7358 199.445 19.2992 196.22 22.4262C193.093 25.5532 191.53 29.7062 191.53 34.8852V70.2101C191.53 75.2915 193.093 79.3956 196.22 82.5226C199.445 85.6495 203.696 87.213 208.972 87.213C214.151 87.213 218.304 85.6495 221.431 82.5226C224.656 79.3956 226.268 75.2915 226.268 70.2101C226.268 69.1352 226.855 68.5978 228.027 68.5978L245.177 69.3307C245.665 69.3307 246.056 69.4773 246.349 69.7704C246.74 70.0636 246.936 70.4056 246.936 70.7964C246.936 77.539 245.323 83.4997 242.099 88.6788C238.972 93.8578 234.525 97.8642 228.76 100.698C223.092 103.532 216.497 104.949 208.972 104.949ZM298.589 105.388C290.967 105.388 284.224 103.825 278.361 100.698C272.596 97.5711 268.101 93.2226 264.876 87.6527C261.652 81.9851 260.039 75.4869 260.039 68.1581V36.7907C260.039 29.5596 261.652 23.1591 264.876 17.5892C268.101 12.0193 272.596 7.71969 278.361 4.69044C284.224 1.56348 290.967 -3.61976e-06 298.589 -3.61976e-06C306.309 -3.61976e-06 313.051 1.56348 318.816 4.69044C324.68 7.71969 329.223 12.0193 332.448 17.5892C335.673 23.1591 337.285 29.5596 337.285 36.7907V68.1581C337.285 75.4869 335.673 81.9851 332.448 87.6527C329.223 93.3204 324.68 97.7177 318.816 100.845C313.051 103.874 306.309 105.388 298.589 105.388ZM298.589 87.6527C303.963 87.6527 308.312 85.9427 311.634 82.5226C314.957 79.1024 316.618 74.5586 316.618 68.8909V36.6441C316.618 30.9765 314.957 26.4326 311.634 23.0125C308.41 19.4947 304.061 17.7358 298.589 17.7358C293.214 17.7358 288.866 19.4947 285.544 23.0125C282.319 26.4326 280.707 30.9765 280.707 36.6441V68.8909C280.707 74.5586 282.319 79.1024 285.544 82.5226C288.866 85.9427 293.214 87.6527 298.589 87.6527Z" fill="white"/>
</svg>
