<svg width="49" height="49" viewBox="0 0 49 49" fill="none" xmlns="http://www.w3.org/2000/svg">
<rect x="0.835128" y="0.835128" width="46.5998" height="46.5998" rx="23.2999" fill="#121212"/>
<rect x="0.835128" y="0.835128" width="46.5998" height="46.5998" rx="23.2999" stroke="#121212" stroke-width="1.67026"/>
<path d="M25.6521 13.3017H17.6354C17.0608 13.3017 16.5097 13.53 16.1034 13.9363C15.697 14.3426 15.4688 14.8937 15.4688 15.4684V32.8017C15.4688 33.3763 15.697 33.9274 16.1034 34.3338C16.5097 34.7401 17.0608 34.9684 17.6354 34.9684H30.6354C31.2101 34.9684 31.7612 34.7401 32.1675 34.3338C32.5738 33.9274 32.8021 33.3763 32.8021 32.8017V24.785" stroke="#C3EC1D" stroke-width="2" stroke-linecap="round" stroke-linejoin="round"/>
<path d="M13.3018 17.635H17.6351" stroke="#C3EC1D" stroke-width="2" stroke-linecap="round" stroke-linejoin="round"/>
<path d="M13.3018 21.9683H17.6351" stroke="#C3EC1D" stroke-width="2" stroke-linecap="round" stroke-linejoin="round"/>
<path d="M13.3018 26.3017H17.6351" stroke="#C3EC1D" stroke-width="2" stroke-linecap="round" stroke-linejoin="round"/>
<path d="M13.3018 30.635H17.6351" stroke="#C3EC1D" stroke-width="2" stroke-linecap="round" stroke-linejoin="round"/>
<path d="M34.2946 17.2298C34.7262 16.7983 34.9686 16.213 34.9686 15.6027C34.9686 14.9924 34.7262 14.4071 34.2946 13.9755C33.8631 13.544 33.2778 13.3015 32.6675 13.3015C32.0572 13.3015 31.4719 13.544 31.0403 13.9755L25.6128 19.4052C25.3552 19.6626 25.1667 19.9808 25.0646 20.3303L24.1579 23.4395C24.1307 23.5327 24.1291 23.6315 24.1532 23.7256C24.1773 23.8197 24.2262 23.9055 24.2949 23.9742C24.3635 24.0429 24.4494 24.0918 24.5435 24.1159C24.6375 24.14 24.7363 24.1384 24.8296 24.1112L27.9387 23.2044C28.2883 23.1024 28.6065 22.9138 28.8639 22.6563L34.2946 17.2298Z" stroke="#C3EC1D" stroke-width="2" stroke-linecap="round" stroke-linejoin="round"/>
</svg>
