<svg width="26" height="26" viewBox="0 0 26 26" fill="none" xmlns="http://www.w3.org/2000/svg">
<path d="M14.5168 2.16669H6.50016C5.92553 2.16669 5.37443 2.39496 4.9681 2.80129C4.56177 3.20762 4.3335 3.75872 4.3335 4.33335V21.6667C4.3335 22.2413 4.56177 22.7924 4.9681 23.1987C5.37443 23.6051 5.92553 23.8334 6.50016 23.8334H19.5002C20.0748 23.8334 20.6259 23.6051 21.0322 23.1987C21.4386 22.7924 21.6668 22.2413 21.6668 21.6667V13.65" stroke="#C3EC1D" stroke-width="2" stroke-linecap="round" stroke-linejoin="round"/>
<path d="M2.1665 6.5H6.49984" stroke="#C3EC1D" stroke-width="2" stroke-linecap="round" stroke-linejoin="round"/>
<path d="M2.1665 10.8333H6.49984" stroke="#C3EC1D" stroke-width="2" stroke-linecap="round" stroke-linejoin="round"/>
<path d="M2.1665 15.1667H6.49984" stroke="#C3EC1D" stroke-width="2" stroke-linecap="round" stroke-linejoin="round"/>
<path d="M2.1665 19.5H6.49984" stroke="#C3EC1D" stroke-width="2" stroke-linecap="round" stroke-linejoin="round"/>
<path d="M23.1594 6.09483C23.5909 5.66328 23.8334 5.07797 23.8334 4.46767C23.8334 3.85736 23.5909 3.27205 23.1594 2.8405C22.7278 2.40895 22.1425 2.1665 21.5322 2.1665C20.9219 2.1665 20.3366 2.40895 19.9051 2.8405L14.4776 8.27017C14.22 8.52759 14.0315 8.84578 13.9294 9.19533L13.0226 12.3045C12.9955 12.3977 12.9938 12.4965 13.0179 12.5906C13.042 12.6847 13.091 12.7705 13.1596 12.8392C13.2283 12.9078 13.3141 12.9568 13.4082 12.9809C13.5023 13.005 13.6011 13.0034 13.6943 12.9762L16.8035 12.0694C17.153 11.9673 17.4712 11.7788 17.7286 11.5212L23.1594 6.09483Z" stroke="#C3EC1D" stroke-width="2" stroke-linecap="round" stroke-linejoin="round"/>
</svg>
