<svg width="49" height="49" viewBox="0 0 49 49" fill="none" xmlns="http://www.w3.org/2000/svg">
<path d="M20.8853 14.385H15.4686C14.8703 14.385 14.3853 14.87 14.3853 15.4683V23.0517C14.3853 23.65 14.8703 24.135 15.4686 24.135H20.8853C21.4836 24.135 21.9686 23.65 21.9686 23.0517V15.4683C21.9686 14.87 21.4836 14.385 20.8853 14.385Z" stroke="#C3EC1D" stroke-width="2" stroke-linecap="round" stroke-linejoin="round"/>
<path d="M32.8018 14.385H27.3851C26.7868 14.385 26.3018 14.87 26.3018 15.4683V18.7183C26.3018 19.3167 26.7868 19.8017 27.3851 19.8017H32.8018C33.4001 19.8017 33.8851 19.3167 33.8851 18.7183V15.4683C33.8851 14.87 33.4001 14.385 32.8018 14.385Z" stroke="#C3EC1D" stroke-width="2" stroke-linecap="round" stroke-linejoin="round"/>
<path d="M32.8018 24.135H27.3851C26.7868 24.135 26.3018 24.62 26.3018 25.2183V32.8017C26.3018 33.4 26.7868 33.885 27.3851 33.885H32.8018C33.4001 33.885 33.8851 33.4 33.8851 32.8017V25.2183C33.8851 24.62 33.4001 24.135 32.8018 24.135Z" stroke="#C3EC1D" stroke-width="2" stroke-linecap="round" stroke-linejoin="round"/>
<path d="M20.8853 28.4683H15.4686C14.8703 28.4683 14.3853 28.9533 14.3853 29.5517V32.8017C14.3853 33.4 14.8703 33.885 15.4686 33.885H20.8853C21.4836 33.885 21.9686 33.4 21.9686 32.8017V29.5517C21.9686 28.9533 21.4836 28.4683 20.8853 28.4683Z" stroke="#C3EC1D" stroke-width="2" stroke-linecap="round" stroke-linejoin="round"/>
</svg>
