<svg xmlns="http://www.w3.org/2000/svg" width="18" height="18" viewBox="0 0 48 48">
  <path fill="#EA4335" d="M24 9.5c3.5 0 6.6 1.2 9 3.4l6.6-6.6C35.3 2.3 29.9 0 24 0 14.6 0 6.5 5.4 2.5 13.2l7.8 6.1C12.2 13.3 17.6 9.5 24 9.5z"></path>
  <path fill="#34A853" d="M46.1 24.6c0-1.7-.1-3.3-.4-4.8H24v9.1h12.4c-.5 2.5-2.1 4.6-4.4 6l6.9 5.3c4.1-3.8 6.2-9.3 6.2-15.6z"></path>
  <path fill="#4A90E2" d="M24 48c6.5 0 12-2.1 16-5.8l-6.9-5.3c-1.9 1.3-4.3 2.1-7.1 2.1-5.5 0-10.1-3.7-11.8-8.8l-7.9 6.1C10.1 43.4 16.4 48 24 48z"></path>
  <path fill="#FBBC05" d="M7.2 28.3c-.4-1.2-.6-2.6-.6-4 0-1.4.2-2.8.6-4l-7.9-6.1C-.9 17.4-1.6 20.6-1.6 24c0 3.4.7 6.6 2.1 9.8l7.7-5.5z"></path>
</svg>
