<svg width="48" height="48" viewBox="0 0 48 48" fill="none" xmlns="http://www.w3.org/2000/svg">
<rect x="0.5" y="0.5" width="47" height="47" rx="7.5" fill="#0A0A0A"/>
<rect x="0.5" y="0.5" width="47" height="47" rx="7.5" stroke="#3B3B3B"/>
<path d="M25.0281 14.001C25.7578 13.9982 26.4876 14.0055 27.2171 14.023L27.4111 14.03C27.6351 14.038 27.8561 14.048 28.1231 14.06C29.1871 14.11 29.9131 14.278 30.5501 14.525C31.2101 14.779 31.7661 15.123 32.3221 15.679C32.8305 16.1786 33.2239 16.7829 33.4751 17.45C33.7221 18.087 33.8901 18.814 33.9401 19.878C33.9521 20.144 33.9621 20.366 33.9701 20.59L33.9761 20.784C33.9939 21.5132 34.0015 22.2426 33.9991 22.972L34.0001 23.718V25.028C34.0026 25.7577 33.9949 26.4875 33.9771 27.217L33.9711 27.411C33.9631 27.635 33.9531 27.856 33.9411 28.123C33.8911 29.187 33.7211 29.913 33.4751 30.55C33.2247 31.2177 32.8312 31.8226 32.3221 32.322C31.8221 32.8303 31.2174 33.2237 30.5501 33.475C29.9131 33.722 29.1871 33.89 28.1231 33.94C27.8561 33.952 27.6351 33.962 27.4111 33.97L27.2171 33.976C26.4876 33.9938 25.7578 34.0014 25.0281 33.999L24.2821 34H22.9731C22.2434 34.0025 21.5136 33.9948 20.7841 33.977L20.5901 33.971C20.3527 33.9624 20.1154 33.9524 19.8781 33.941C18.8141 33.891 18.0881 33.721 17.4501 33.475C16.7828 33.2243 16.1783 32.8308 15.6791 32.322C15.1701 31.8223 14.7763 31.2175 14.5251 30.55C14.2781 29.913 14.1101 29.187 14.0601 28.123C14.049 27.8857 14.039 27.6484 14.0301 27.411L14.0251 27.217C14.0067 26.4875 13.9983 25.7577 14.0001 25.028V22.972C13.9973 22.2426 14.0046 21.5132 14.0221 20.784L14.0291 20.59C14.0371 20.366 14.0471 20.144 14.0591 19.878C14.1091 18.813 14.2771 18.088 14.5241 17.45C14.7755 16.7826 15.1701 16.1784 15.6801 15.68C16.179 15.1707 16.7831 14.7766 17.4501 14.525C18.0881 14.278 18.8131 14.11 19.8781 14.06L20.5901 14.03L20.7841 14.025C21.5133 14.0066 22.2427 13.9982 22.9721 14L25.0281 14.001ZM24.0001 19.001C23.3376 18.9916 22.6798 19.114 22.0651 19.3611C21.4503 19.6081 20.8907 19.9749 20.4189 20.44C19.9471 20.9052 19.5725 21.4595 19.3168 22.0707C19.0611 22.682 18.9294 23.3379 18.9294 24.0005C18.9294 24.663 19.0611 25.319 19.3168 25.9302C19.5725 26.5414 19.9471 27.0958 20.4189 27.5609C20.8907 28.0261 21.4503 28.3929 22.0651 28.6399C22.6798 28.887 23.3376 29.0094 24.0001 29C25.3262 29 26.5979 28.4732 27.5356 27.5355C28.4733 26.5978 29.0001 25.3261 29.0001 24C29.0001 22.6739 28.4733 21.4021 27.5356 20.4645C26.5979 19.5268 25.3262 19.001 24.0001 19.001ZM24.0001 21.001C24.3986 20.9936 24.7946 21.0658 25.1649 21.2132C25.5352 21.3606 25.8724 21.5803 26.1569 21.8595C26.4413 22.1387 26.6673 22.4718 26.8215 22.8393C26.9758 23.2068 27.0553 23.6014 27.0554 24C27.0554 24.3986 26.9761 24.7931 26.8219 25.1607C26.6678 25.5283 26.4419 25.8614 26.1576 26.1407C25.8732 26.42 25.5361 26.6399 25.1658 26.7874C24.7955 26.9349 24.3996 27.0072 24.0011 27C23.2054 27 22.4424 26.6839 21.8798 26.1213C21.3172 25.5587 21.0011 24.7956 21.0011 24C21.0011 23.2043 21.3172 22.4413 21.8798 21.8787C22.4424 21.3161 23.2054 21 24.0011 21L24.0001 21.001ZM29.2501 17.501C28.9275 17.5139 28.6224 17.6511 28.3987 17.884C28.175 18.1168 28.0501 18.4271 28.0501 18.75C28.0501 19.0729 28.175 19.3832 28.3987 19.616C28.6224 19.8488 28.9275 19.9861 29.2501 19.999C29.5816 19.999 29.8996 19.8673 30.134 19.6329C30.3684 19.3984 30.5001 19.0805 30.5001 18.749C30.5001 18.4175 30.3684 18.0995 30.134 17.8651C29.8996 17.6307 29.5816 17.499 29.2501 17.499V17.501Z" fill="white"/>
</svg>
